<svg xmlns="http://www.w3.org/2000/svg" xmlns:xlink="http://www.w3.org/1999/xlink" xmlns:lucid="lucid" width="542" height="722"><g transform="translate(421.0000000136425 201.00000002654755)" lucid:page-tab-id="0_0"><path d="M-240-194a6 6 0 0 1 6-6h148a6 6 0 0 1 6 6v128a6 6 0 0 1-6 6h-148a6 6 0 0 1-6-6z" stroke="#3a414a" stroke-width="2" fill="#fff"/><use xlink:href="#a" transform="matrix(1,0,0,1,-235,-195) translate(9.689670138888886 74.34027777777777)"/><path d="M-420 226a6 6 0 0 1 6-6h528a6 6 0 0 1 6 6v288a6 6 0 0 1-6 6h-528a6 6 0 0 1-6-6z" stroke="#3a414a" stroke-width="2" fill="#fff"/><use xlink:href="#b" transform="matrix(1,0,0,1,-415,225) translate(0 288.6896977777778)"/><path d="M-380 306a6 6 0 0 1 6-6h148a6 6 0 0 1 6 6v108a6 6 0 0 1-6 6h-148a6 6 0 0 1-6-6z" stroke="#3a414a" stroke-width="2" fill="#fff"/><use xlink:href="#c" transform="matrix(1,0,0,1,-368,312) translate(10.947048611111093 57.52777777777778)"/><path d="M-160 306a6 6 0 0 1 6-6H54a6 6 0 0 1 6 6v108a6 6 0 0 1-6 6h-208a6 6 0 0 1-6-6z" stroke="#3a414a" stroke-width="2" fill="#fff"/><use xlink:href="#d" transform="matrix(1,0,0,1,-148,312) translate(7.971788194444471 57.52777777777778)"/><path d="M-204.5 360h29" stroke="#3a414a" fill="none"/><path d="M-218 360l13-7.5v15zM-162 360l-13 7.5v-15z" stroke="#3a414a" fill="#3a414a"/><path d="M-160-57.5V.45" stroke="#3a414a" stroke-width="3" fill="none"/><path d="M-158.53-57.46h-2.94V-59h2.94zM-158.53 1.75l-2.94.4V.4h2.94z" stroke="#3a414a" stroke-width=".05" fill="#3a414a"/><path d="M-158.53 139.94v77.56" stroke="#3a414a" stroke-width="3" fill="none"/><path d="M-157.06 138.65v1.33H-160v-1.75zM-157.06 219H-160v-1.54h2.94z" stroke="#3a414a" stroke-width=".05" fill="#3a414a"/><path d="M-317 98c-34.8 0-63-12.54-63-28 0-12.37 17.06-22.8 43.53-26.63C-338 7-233 0-191 14-170-7-65 0-65 21c63-7 126 21 84 56 42 28 0 63-84 49-21 18.2-105 18.2-126 0-42 14-126 7-126-28z" stroke="#3a414a" stroke-width="2" fill="#fff"/><path d="M-361.8 38.76a6 6 0 0 1 6-6h388a6 6 0 0 1 6 6v68a6 6 0 0 1-6 6h-388a6 6 0 0 1-6-6z" fill="none"/><use xlink:href="#e" transform="matrix(1,0,0,1,-361.81025290096363,32.75898839614581) translate(91.12413194444444 21.52777777777778)"/><use xlink:href="#f" transform="matrix(1,0,0,1,-361.81025290096363,32.75898839614581) translate(144.31423611111111 21.52777777777778)"/><use xlink:href="#g" transform="matrix(1,0,0,1,-361.81025290096363,32.75898839614581) translate(223.42664930555554 21.52777777777778)"/><use xlink:href="#h" transform="matrix(1,0,0,1,-361.81025290096363,32.75898839614581) translate(169.96527777777777 48.415798611111114)"/><use xlink:href="#i" transform="matrix(1,0,0,1,-361.81025290096363,32.75898839614581) translate(78.61870659722221 75.30381944444446)"/><use xlink:href="#j" transform="matrix(1,0,0,1,-361.81025290096363,32.75898839614581) translate(140.30490451388889 75.30381944444446)"/><defs><path d="M-44 0l756-1490h400L1387 0h-327l-57-346H473L305 0H-44zm634-585h373c-37-212-56-397-81-666-107 262-185 453-292 666" id="k"/><path d="M419 14C188 14 60-144 103-407l118-711h300L412-459c-23 138 39 222 166 222 125 0 231-84 255-234l107-647h301L1056 0H772l35-232C717-74 589 14 419 14" id="l"/><path d="M42 0l182-1097c42-255 267-413 575-413 286 0 502 138 459 402-26 155-128 272-268 310l-3 16c192 14 290 164 255 373C1198-150 979 0 699 0H504l41-246h148c132 0 230-76 250-191 20-119-59-199-210-199H616l39-236h78c109 0 193-89 210-192 19-111-46-193-176-193-128 0-228 79-249 203L342 0H42" id="m"/><path d="M552 24C254 24 71-146 71-432c0-377 264-705 643-705 236 0 413 123 413 326 0 251-270 329-766 342-10 155 35 265 213 267 113 0 207-50 245-134l269 36C1015-105 814 24 552 24zM392-650c368-7 456-43 456-146 0-71-63-115-165-115-165 0-251 126-291 261" id="n"/><path d="M441-638L335 0H35l186-1118h282l-30 213c87-148 206-227 368-227 241 0 374 169 330 431L1055 0H754l112-669c23-140-43-212-161-212-135 0-240 96-264 243" id="o"/><path d="M490 22C212 20 43-104 37-315l281-29c11 104 65 146 186 146 109 0 214-47 222-128 5-51-29-84-119-104l-186-40c-195-42-289-149-277-303 14-232 242-359 510-359 274 2 415 119 430 308l-267 27c-11-76-56-120-162-120-98 0-203 45-211 128-6 50 24 83 118 104l194 40c196 41 291 138 279 289-15 238-265 378-545 378" id="p"/><path d="M776-1118l-37 229H530l-93 562c-12 72 14 104 85 104 23 0 74-7 97-13l5 225C555 8 488 16 426 16 201 16 99-97 132-301l98-588H76l37-229h155l44-266h300l-44 266h208" id="q"/><path d="M582-1490L335 0H35l247-1490h300" id="r"/><g id="a"><use transform="matrix(0.010850694444444444,0,0,0.010850694444444444,0,0)" xlink:href="#k"/><use transform="matrix(0.010850694444444444,0,0,0.010850694444444444,16.590711805555554,0)" xlink:href="#l"/><use transform="matrix(0.010850694444444444,0,0,0.010850694444444444,30.436197916666664,0)" xlink:href="#m"/><use transform="matrix(0.010850694444444444,0,0,0.010850694444444444,45.041232638888886,0)" xlink:href="#n"/><use transform="matrix(0.010850694444444444,0,0,0.010850694444444444,58.14887152777778,0)" xlink:href="#o"/><use transform="matrix(0.010850694444444444,0,0,0.010850694444444444,71.98350694444444,0)" xlink:href="#p"/><use transform="matrix(0.010850694444444444,0,0,0.010850694444444444,84.41840277777777,0)" xlink:href="#q"/><use transform="matrix(0.010850694444444444,0,0,0.010850694444444444,92.36111111111111,0)" xlink:href="#n"/><use transform="matrix(0.010850694444444444,0,0,0.010850694444444444,105.46875,0)" xlink:href="#r"/><use transform="matrix(0.010850694444444444,0,0,0.010850694444444444,111.49088541666666,0)" xlink:href="#r"/><use transform="matrix(0.010850694444444444,0,0,0.010850694444444444,117.51302083333334,0)" xlink:href="#n"/></g><path d="M23 0l30-183 923-1054H225l42-253h1134l-31 184L448-253h750L1156 0H23" id="s"/><path d="M36 0l185-1118h290l-31 195h12c83-166 210-238 399-200l-45 268c-197-55-375 37-405 219L336 0H36" id="t"/><path d="M441 19C184 19 19-186 81-558c63-382 303-574 550-574 189 0 259 113 285 202h10l31-188h299L1071 0H776l29-179h-14C733-87 623 19 441 19zm133-241c154 0 263-135 296-336 34-204-31-334-185-334-159 0-264 139-296 334-33 197 29 336 185 336" id="u"/><g id="b"><use transform="matrix(0.010850694444444444,0,0,0.010850694444444444,0,0)" xlink:href="#s"/><use transform="matrix(0.010850694444444444,0,0,0.010850694444444444,14.778645833333332,0)" xlink:href="#n"/><use transform="matrix(0.010850694444444444,0,0,0.010850694444444444,27.88628472222222,0)" xlink:href="#o"/><use transform="matrix(0.010850694444444444,0,0,0.010850694444444444,41.720920138888886,0)" xlink:href="#q"/><use transform="matrix(0.010850694444444444,0,0,0.010850694444444444,49.88064236111111,0)" xlink:href="#t"/><use transform="matrix(0.010850694444444444,0,0,0.010850694444444444,58.3984375,0)" xlink:href="#u"/><use transform="matrix(0.010850694444444444,0,0,0.010850694444444444,72.41753472222223,0)" xlink:href="#r"/><use transform="matrix(0.010850694444444444,0,0,0.010850694444444444,78.4396701388889,0)" xlink:href="#n"/></g><path d="M458 0L52-1490h194c108 439 233 855 324 1313 92-459 221-873 331-1313h216c110 438 234 854 330 1307 92-455 216-869 323-1307h196L1558 0h-221l-256-944c-26-95-50-200-73-331-22 122-44 223-73 331L680 0H458" id="v"/><path d="M628 24c-324 0-524-230-524-574 0-343 198-582 503-582 237 0 487 146 487 559v75H286c9 234 145 362 343 362 132 0 231-58 273-172l174 48C1024-91 857 24 628 24zM287-650h624c-17-190-120-322-304-322-192 0-309 151-320 322" id="w"/><path d="M677 24c-213 0-288-135-325-197h-20V0H158v-1490h180v551h14c37-59 106-193 324-193 279 0 474 222 474 576 0 356-194 580-473 580zm-27-161c209 0 317-186 317-421 0-232-105-413-317-413-206 0-314 166-314 413 0 249 111 421 314 421" id="x"/><path d="M538 24C308 24 148-78 108-271l171-41c32 123 123 178 257 178 156 0 256-77 256-169 0-77-54-128-164-154l-186-44c-203-48-300-148-300-305 0-192 176-326 414-326 230 0 351 112 402 269l-163 42c-31-80-94-158-238-158-133 0-233 69-233 162 0 83 57 129 188 160l169 40c203 48 298 149 298 302 0 196-179 339-441 339" id="y"/><path d="M158 0v-1118h174v172h12c41-113 157-188 290-188 26 0 70 2 91 3v181c-11-2-60-10-108-10-161 0-279 109-279 260V0H158" id="z"/><path d="M481 0L54-1118h197c107 314 236 620 325 951 87-331 217-637 324-951h197L670 0H481" id="A"/><g id="c"><use transform="matrix(0.010850694444444444,0,0,0.010850694444444444,0,0)" xlink:href="#v"/><use transform="matrix(0.010850694444444444,0,0,0.010850694444444444,20.768229166666668,0)" xlink:href="#w"/><use transform="matrix(0.010850694444444444,0,0,0.010850694444444444,33.723958333333336,0)" xlink:href="#x"/><use transform="matrix(0.010850694444444444,0,0,0.010850694444444444,47.33072916666667,0)" xlink:href="#y"/><use transform="matrix(0.010850694444444444,0,0,0.010850694444444444,59.06032986111112,0)" xlink:href="#w"/><use transform="matrix(0.010850694444444444,0,0,0.010850694444444444,72.01605902777779,0)" xlink:href="#z"/><use transform="matrix(0.010850694444444444,0,0,0.010850694444444444,80.72916666666669,0)" xlink:href="#A"/><use transform="matrix(0.010850694444444444,0,0,0.010850694444444444,92.78428819444449,0)" xlink:href="#w"/><use transform="matrix(0.010850694444444444,0,0,0.010850694444444444,105.74001736111114,0)" xlink:href="#z"/></g><path d="M645 0H180v-1490h484c435 0 692 280 692 742 0 466-257 748-711 748zM370-168h263c363 0 539-218 539-580 0-358-176-574-521-574H370v1154" id="B"/><path d="M471 26C259 26 90-98 90-318c0-256 228-303 435-329 202-27 287-16 287-108 0-139-79-219-234-219-161 0-248 86-283 164l-173-57c86-203 278-265 451-265 150 0 419 46 419 395V0H815v-152h-12C765-73 660 26 471 26zm31-159c199 0 310-134 310-271v-155c-30 35-226 55-295 64-131 17-246 59-246 186 0 116 97 176 231 176" id="C"/><path d="M598-1118v154H368v674c0 100 37 144 132 144 23 0 62-6 92-12L629-6c-37 13-88 20-134 20-193 0-307-107-307-290v-688H20v-154h168v-266h180v266h230" id="D"/><path d="M338-670V0H158v-1118h173l1 207c72-158 192-221 342-221 226 0 378 139 378 422V0H872v-695c0-172-96-275-252-275-161 0-282 109-282 300" id="E"/><path d="M158 0v-1490h180v865h22l478-493h223L593-638 1096 0H865L456-523 338-412V0H158" id="F"/><g id="d"><use transform="matrix(0.010850694444444444,0,0,0.010850694444444444,0,0)" xlink:href="#B"/><use transform="matrix(0.010850694444444444,0,0,0.010850694444444444,16.03732638888889,0)" xlink:href="#C"/><use transform="matrix(0.010850694444444444,0,0,0.010850694444444444,28.515625,0)" xlink:href="#D"/><use transform="matrix(0.010850694444444444,0,0,0.010850694444444444,35.568576388888886,0)" xlink:href="#w"/><use transform="matrix(0.010850694444444444,0,0,0.010850694444444444,48.52430555555556,0)" xlink:href="#E"/><use transform="matrix(0.010850694444444444,0,0,0.010850694444444444,61.65364583333333,0)" xlink:href="#x"/><use transform="matrix(0.010850694444444444,0,0,0.010850694444444444,75.47743055555554,0)" xlink:href="#C"/><use transform="matrix(0.010850694444444444,0,0,0.010850694444444444,87.95572916666666,0)" xlink:href="#E"/><use transform="matrix(0.010850694444444444,0,0,0.010850694444444444,101.08506944444441,0)" xlink:href="#F"/><use transform="matrix(0.010850694444444444,0,0,0.010850694444444444,113.28124999999997,0)" xlink:href="#y"/><use transform="matrix(0.010850694444444444,0,0,0.010850694444444444,125.01085069444441,0)" xlink:href="#w"/><use transform="matrix(0.010850694444444444,0,0,0.010850694444444444,137.9665798611111,0)" xlink:href="#z"/><use transform="matrix(0.010850694444444444,0,0,0.010850694444444444,146.67968749999997,0)" xlink:href="#A"/><use transform="matrix(0.010850694444444444,0,0,0.010850694444444444,158.73480902777774,0)" xlink:href="#w"/><use transform="matrix(0.010850694444444444,0,0,0.010850694444444444,171.6905381944444,0)" xlink:href="#z"/></g><path d="M478 0L203-1490h339c66 423 144 779 178 1244 185-463 373-817 577-1244h337L877 0H478" id="G"/><path d="M42 0l247-1490h581c338 0 498 208 449 502-48 295-279 501-622 501H428L347 0H42zm427-733h220c188 0 291-107 316-254 24-150-46-251-234-251H552" id="H"/><path d="M42 0l247-1490h338l345 754c42 94 88 210 128 373 38-422 109-737 168-1127h312L1333 0H995C826-390 654-682 519-1121 476-661 417-410 354 0H42" id="I"/><g id="e"><use transform="matrix(0.010850694444444444,0,0,0.010850694444444444,0,0)" xlink:href="#G"/><use transform="matrix(0.010850694444444444,0,0,0.010850694444444444,16.590711805555554,0)" xlink:href="#H"/><use transform="matrix(0.010850694444444444,0,0,0.010850694444444444,30.98958333333333,0)" xlink:href="#I"/></g><path d="M188-1237l42-253h1217l-42 253H950L745 0H439l205-1237H188" id="J"/><g id="f"><use transform="matrix(0.010850694444444444,0,0,0.010850694444444444,0,0)" xlink:href="#J"/><use transform="matrix(0.010850694444444444,0,0,0.010850694444444444,13.20529513888889,0)" xlink:href="#l"/><use transform="matrix(0.010850694444444444,0,0,0.010850694444444444,27.05078125,0)" xlink:href="#o"/><use transform="matrix(0.010850694444444444,0,0,0.010850694444444444,40.885416666666664,0)" xlink:href="#o"/><use transform="matrix(0.010850694444444444,0,0,0.010850694444444444,54.72005208333333,0)" xlink:href="#n"/><use transform="matrix(0.010850694444444444,0,0,0.010850694444444444,67.82769097222221,0)" xlink:href="#r"/></g><path d="M594-1490L347 0H42l247-1490h305" id="K"/><g id="g"><use transform="matrix(0.010850694444444444,0,0,0.010850694444444444,0,0)" xlink:href="#K"/><use transform="matrix(0.010850694444444444,0,0,0.010850694444444444,6.239149305555555,0)" xlink:href="#o"/><use transform="matrix(0.010850694444444444,0,0,0.010850694444444444,20.07378472222222,0)" xlink:href="#q"/><use transform="matrix(0.010850694444444444,0,0,0.010850694444444444,28.016493055555554,0)" xlink:href="#n"/><use transform="matrix(0.010850694444444444,0,0,0.010850694444444444,41.12413194444444,0)" xlink:href="#t"/><use transform="matrix(0.010850694444444444,0,0,0.010850694444444444,50.34722222222221,0)" xlink:href="#o"/><use transform="matrix(0.010850694444444444,0,0,0.010850694444444444,64.18185763888889,0)" xlink:href="#n"/><use transform="matrix(0.010850694444444444,0,0,0.010850694444444444,77.28949652777777,0)" xlink:href="#q"/></g><path d="M370-1490V0H180v-1490h190" id="L"/><path d="M180 0v-1490h510c348 0 508 209 508 474 0 266-160 477-507 477H370V0H180zm190-706h312c236 0 327-133 327-310 0-176-91-307-329-307H370v617" id="M"/><path d="M657 26c-323 0-524-166-541-416h195c15 169 171 246 346 246 202 0 356-106 356-265 5-203-294-238-475-293-239-73-380-191-380-389 0-252 224-419 512-419 294 0 499 171 508 396H992c-17-145-151-228-328-228-193 0-321 102-321 242 0 156 175 211 284 241l149 41c160 44 422 134 422 412 0 244-197 432-541 432" id="N"/><path d="M613 24c-304 0-509-231-509-576 0-350 205-580 509-580 216 0 392 114 453 309l-173 49c-33-115-133-197-280-197-223 0-326 196-326 419 0 220 103 415 326 415 150 0 252-85 285-206l172 49C1010-95 832 24 613 24" id="O"/><g id="h"><use transform="matrix(0.010850694444444444,0,0,0.010850694444444444,0,0)" xlink:href="#L"/><use transform="matrix(0.010850694444444444,0,0,0.010850694444444444,5.967881944444445,0)" xlink:href="#M"/><use transform="matrix(0.010850694444444444,0,0,0.010850694444444444,20.16059027777778,0)" xlink:href="#N"/><use transform="matrix(0.010850694444444444,0,0,0.010850694444444444,34.41840277777778,0)" xlink:href="#w"/><use transform="matrix(0.010850694444444444,0,0,0.010850694444444444,47.37413194444444,0)" xlink:href="#O"/></g><path d="M218-607c0-325 108-727 258-974h175c-155 315-250 682-250 974 0 265 78 531 250 886H476C306-10 218-315 218-607" id="P"/><path d="M180 0v-1490h908v168H370v486h669v168H370v500h727V0H180" id="Q"/><path d="M128 359l88-567h206L266 359H128" id="R"/><g id="i"><use transform="matrix(0.010850694444444444,0,0,0.010850694444444444,0,0)" xlink:href="#P"/><use transform="matrix(0.010850694444444444,0,0,0.010850694444444444,8.10546875,0)" xlink:href="#Q"/><use transform="matrix(0.010850694444444444,0,0,0.010850694444444444,21.46267361111111,0)" xlink:href="#N"/><use transform="matrix(0.010850694444444444,0,0,0.010850694444444444,35.720486111111114,0)" xlink:href="#M"/><use transform="matrix(0.010850694444444444,0,0,0.010850694444444444,49.03428819444444,0)" xlink:href="#R"/></g><path d="M98-1322v-168h1126v168H757V0H567v-1322H98" id="S"/><path d="M158 418v-1536h174v179h20c37-59 106-193 324-193 279 0 474 222 474 576 0 356-194 580-473 580-213 0-288-135-325-197h-14v591H158zm492-555c209 0 317-186 317-421 0-232-105-413-317-413-206 0-314 166-314 413 0 249 111 421 314 421" id="T"/><path d="M613 24c-304 0-509-231-509-576 0-350 205-580 509-580 305 0 511 230 511 580 0 345-206 576-511 576zm0-161c226 0 329-195 329-415 0-222-103-419-329-419-223 0-326 196-326 419 0 220 103 415 326 415" id="U"/><path d="M158 0v-1118h175l1 205c55-151 181-225 313-225 147 0 245 90 285 228 53-141 190-228 352-228 194 0 352 125 352 384V0h-181v-749c0-161-105-225-225-225-151 0-243 103-243 244V0H807v-767c0-124-93-207-219-207-131 0-250 92-250 270V0H158" id="V"/><path d="M577 24c-279 0-473-224-473-580 0-354 195-576 474-576 218 0 287 134 324 193h14v-551h180V0H922v-173h-20C865-111 790 24 577 24zm27-161c203 0 314-172 314-421 0-247-108-413-314-413-212 0-317 181-317 413 0 235 108 421 317 421" id="W"/><path d="M537 14c-226 0-379-139-379-422v-710h180v695c0 172 97 275 253 275 160 0 281-109 281-300v-670h181V0H879v-209C806-46 684 14 537 14" id="X"/><path d="M96 279C273-86 346-350 346-607c0-292-95-659-250-974h175c150 246 258 650 258 974 0 297-91 602-258 886H96" id="Y"/><g id="j"><use transform="matrix(0.010850694444444444,0,0,0.010850694444444444,0,0)" xlink:href="#S"/><use transform="matrix(0.010850694444444444,0,0,0.010850694444444444,13.0859375,0)" xlink:href="#z"/><use transform="matrix(0.010850694444444444,0,0,0.010850694444444444,21.451822916666664,0)" xlink:href="#C"/><use transform="matrix(0.010850694444444444,0,0,0.010850694444444444,33.93012152777777,0)" xlink:href="#E"/><use transform="matrix(0.010850694444444444,0,0,0.010850694444444444,47.05946180555556,0)" xlink:href="#y"/><use transform="matrix(0.010850694444444444,0,0,0.010850694444444444,58.789062499999986,0)" xlink:href="#T"/><use transform="matrix(0.010850694444444444,0,0,0.010850694444444444,72.39583333333333,0)" xlink:href="#U"/><use transform="matrix(0.010850694444444444,0,0,0.010850694444444444,85.7204861111111,0)" xlink:href="#z"/><use transform="matrix(0.010850694444444444,0,0,0.010850694444444444,94.43359375,0)" xlink:href="#D"/><use transform="matrix(0.010850694444444444,0,0,0.010850694444444444,101.70355902777777,0)" xlink:href="#V"/><use transform="matrix(0.010850694444444444,0,0,0.010850694444444444,121.1697048611111,0)" xlink:href="#U"/><use transform="matrix(0.010850694444444444,0,0,0.010850694444444444,134.49435763888889,0)" xlink:href="#W"/><use transform="matrix(0.010850694444444444,0,0,0.010850694444444444,148.10112847222223,0)" xlink:href="#X"/><use transform="matrix(0.010850694444444444,0,0,0.010850694444444444,161.24131944444446,0)" xlink:href="#y"/><use transform="matrix(0.010850694444444444,0,0,0.010850694444444444,172.9709201388889,0)" xlink:href="#Y"/></g></defs></g></svg>