<svg xmlns="http://www.w3.org/2000/svg" xmlns:xlink="http://www.w3.org/1999/xlink" xmlns:lucid="lucid" width="643.4" height="591.2"><g transform="translate(880 -52.08291434843573)" lucid:page-tab-id="0_0"><path d="M-740 310c0 27.6-22.4 50-50 50s-50-22.4-50-50 22.4-50 50-50 50 22.4 50 50z" stroke="#3a414a" stroke-width="2" fill="#fff"/><use xlink:href="#a" transform="matrix(1,0,0,1,-835,265) translate(34.17046440972222 52.46527777777778)"/><path d="M-260 310c0 27.6-22.4 50-50 50s-50-22.4-50-50 22.4-50 50-50 50 22.4 50 50z" stroke="#3a414a" stroke-width="2" fill="#fff"/><use xlink:href="#b" transform="matrix(1,0,0,1,-355,265) translate(34.56651475694444 52.46527777777778)"/><path d="M-420 570c0 27.6-22.4 50-50 50s-50-22.4-50-50 22.4-50 50-50 50 22.4 50 50z" stroke="#3a414a" stroke-width="2" fill="#fff"/><use xlink:href="#c" transform="matrix(1,0,0,1,-515,525) translate(33.72016059027778 52.46527777777778)"/><path d="M-580 130c0 27.6-22.4 50-50 50s-50-22.4-50-50 22.4-50 50-50 50 22.4 50 50z" stroke="#3a414a" stroke-width="2" fill="#fff"/><use xlink:href="#d" transform="matrix(1,0,0,1,-675,85) translate(33.81781684027778 52.46527777777778)"/><path d="M-578.58 130.27l214.26 140" stroke="#3a414a" fill="none"/><path d="M-578.3 129.88l-.53.8-.2-.13.03-.54-.02-.58z" stroke="#3a414a" stroke-width=".05" fill="#3a414a"/><path d="M-351.96 278.35l-14.48-3.92 5.07-7.76z" stroke="#3a414a" fill="#3a414a"/><path d="M-361.42 309.73L-576.04 170.2" stroke="#3a414a" fill="none"/><path d="M-360.97 309.45l-.03.54.02.58-.7-.46.5-.8z" stroke="#3a414a" stroke-width=".05" fill="#3a414a"/><path d="M-588.42 162.14l14.5 3.9-5.07 7.77z" stroke="#3a414a" fill="#3a414a"/><path d="M-663.48 169.1l-86.8 86.8" stroke="#3a414a" fill="none"/><path d="M-662.84 169.03l.07.04-.38.4-.67-.7.35-.34z" stroke="#3a414a" stroke-width=".05" fill="#3a414a"/><path d="M-760.72 266.35l6.8-13.37 6.57 6.56z" stroke="#3a414a" fill="#3a414a"/><path d="M-789.65 258.65l100.03-100.03" stroke="#3a414a" fill="none"/><path d="M-789.3 258.97l-.06.06-.63-.03-.7.02.73-.72z" stroke="#3a414a" stroke-width=".05" fill="#3a414a"/><path d="M-679.18 148.18l-6.8 13.36-6.56-6.55z" stroke="#3a414a" fill="#3a414a"/><path d="M-768.36 356.62l236.44 189.63" stroke="#3a414a" fill="none"/><path d="M-768.05 356.26l-.6.74-.58-.47.97-.44z" stroke="#3a414a" stroke-width=".05" fill="#3a414a"/><path d="M-520.4 555.48l-14.03-5.3 5.8-7.24z" stroke="#3a414a" fill="#3a414a"/><path d="M-509.94 537.55l-227.8-185.08" stroke="#3a414a" fill="none"/><path d="M-509.27 537.48l-.57.76-.4-.33.6-.73z" stroke="#3a414a" stroke-width=".05" fill="#3a414a"/><path d="M-749.2 343.16l14 5.4-5.84 7.2z" stroke="#3a414a" fill="#3a414a"/><path d="M-418.77 569.56l101.2-194.03" stroke="#3a414a" fill="none"/><path d="M-418.34 569.76l-.72 1.38.06-1.13-.02-.6z" stroke="#3a414a" stroke-width=".05" fill="#3a414a"/><path d="M-310.75 362.44l-2.5 14.8-8.2-4.3z" stroke="#3a414a" fill="#3a414a"/><path d="M-336.94 353.83L-425.9 519.8" stroke="#3a414a" fill="none"/><path d="M-336.3 353.64l-.22.42-.84-.44.25-.48z" stroke="#3a414a" stroke-width=".05" fill="#3a414a"/><path d="M-432.88 532.83l2.65-14.77 8.17 4.38z" stroke="#3a414a" fill="#3a414a"/><path d="M-470.18 518.53l-128.2-329.26" stroke="#3a414a" fill="none"/><path d="M-469.48 519.02l-.5-.02-.52.02-.13-.33.9-.35z" stroke="#3a414a" stroke-width=".05" fill="#3a414a"/><path d="M-603.73 175.5l9.5 11.62-8.64 3.36z" stroke="#3a414a" fill="#3a414a"/><path d="M-629.8 181.47l131.43 327.47" stroke="#3a414a" fill="none"/><path d="M-630 181l.5-.02.13.32-.88.35-.27-.68z" stroke="#3a414a" stroke-width=".05" fill="#3a414a"/><path d="M-492.87 522.64l-9.6-11.5 8.6-3.46z" stroke="#3a414a" fill="#3a414a"/><path d="M-742.24 329.13l168.56 4.5c.07-2.77 2.37-4.94 5.13-4.87 2.76.07 4.94 2.37 4.86 5.13l16.86.44c.08-2.76 2.37-4.94 5.13-4.87 2.75.08 4.93 2.38 4.86 5.14l168.97 4.5" stroke="#3a414a" fill="none"/><path d="M-742.2 328.65l-.04.95h-.67l.33-.96z" stroke="#3a414a" stroke-width=".05" fill="#3a414a"/><path d="M-353.1 339.5l-14.4 4.26.25-9.27z" stroke="#3a414a" fill="#3a414a"/><path d="M-360.35 320.5l-183.97-5.1c.08-2.75-2.1-5.05-4.86-5.13-2.76-.08-5.06 2.1-5.14 4.86l-17.1-.48c.1-2.76-2.1-5.06-4.85-5.13-2.76-.08-5.06 2.1-5.14 4.86l-141.22-3.93" stroke="#3a414a" fill="none"/><path d="M-359.96 320.05l.2.95h-.62l.03-.96z" stroke="#3a414a" stroke-width=".05" fill="#3a414a"/><path d="M-737.38 310.05l14.4-4.24-.27 9.27z" stroke="#3a414a" fill="#3a414a"/><path d="M-258 309.95l3.48-.17 3.4-.53 2.63-.7 2.15-.82 1.76-.9 1.5-.95 1.28-1.03 1.1-1.1.97-1.2.84-1.28.72-1.43.62-1.6.5-1.8.33-2.1.13-2.46-.14-2.93-.55-3.52-1.1-4.23-1.9-5-2.83-5.6-3.7-5.75-4.23-5.28-4.27-4.34-3.96-3.25-3.48-2.3-3.02-1.58-2.62-1.03-2.3-.64-2.03-.34-1.83-.12-1.7.07-1.55.24-1.5.37-1.42.54-.94.47" stroke="#3a414a" stroke-width="2" stroke-linejoin="round" fill="none"/><path d="M-257.93 310.92l-1.12.06.05-.97-.03-.97 1-.05z" stroke="#3a414a" stroke-width=".05" fill="#3a414a"/><path d="M-290.6 259.55l4.86-14.2 7.4 5.57z" stroke="#3a414a" stroke-width="2" fill="#3a414a"/><path d="M-598.3 88.85l1.63-2.33 1.55-2.63 1.1-2.27.76-1.97.53-1.76.34-1.58.2-1.45.07-1.35-.04-1.27-.14-1.2-.23-1.16-.32-1.14-.4-1.1-.5-1.1-.62-1.1-.75-1.1-.9-1.12-1.07-1.14-1.3-1.18-1.56-1.2-1.92-1.26-2.35-1.27-2.9-1.28-3.52-1.23-4.27-1.12-5-.88-5.6-.53-5.9-.1-5.78.4-5.26.76-4.56 1.04-3.82 1.2-3.14 1.28-2.56 1.3-2.1 1.26-1.72 1.26-1.42 1.2-1.17 1.2-.98 1.15-.82 1.14-.68 1.13-.56 1.13-.45 1.13-.35 1.16-.27 1.17-.17 1.23-.03.38" stroke="#3a414a" stroke-width="2" stroke-linejoin="round" fill="none"/><path d="M-597.5 89.4l-.6.86-1.56-1.2.57-.8z" stroke="#3a414a" stroke-width=".05" fill="#3a414a"/><path d="M-662.26 86.62l-9.16-11.88 8.73-3.12z" stroke="#3a414a" stroke-width="2" fill="#3a414a"/><path d="M-842 310.06l-3.3.2-3.32.6-2.62.8-2.15.98-1.8 1.1-1.54 1.2-1.33 1.36-1.16 1.5-1 1.68-.85 1.92-.66 2.2-.45 2.58-.14 3.02.26 3.52.8 4 1.4 4.38 2.06 4.4 2.5 4.05 2.75 3.4 2.73 2.66 2.6 2 2.45 1.42 2.28.98 2.12.62 2.02.33 1.95.1 1.28-.12" stroke="#3a414a" stroke-width="2" stroke-linejoin="round" fill="none"/><path d="M-841 310l.03.98-1 .05-.1-1.94 1.12-.08z" stroke="#3a414a" stroke-width=".05" fill="#3a414a"/><path d="M-822.8 352.9l-9.42 11.66-5.05-7.77z" stroke="#3a414a" stroke-width="2" fill="#3a414a"/><path d="M-469.95 622l.18 3.4.54 3.37.73 2.65.86 2.15.94 1.8 1.03 1.5 1.12 1.32 1.2 1.13 1.32 1 1.45.87 1.62.74 1.84.62 2.12.46 2.47.26h2.92l3.46-.4 4.1-.9 4.76-1.63 5.2-2.42 5.2-3.14 4.72-3.6 3.86-3.66 2.92-3.45 2.12-3.13 1.47-2.77 1-2.47.6-2.2.33-2.02.1-1.85-.1-1.74-.28-1.65-.46-1.62-.2-.5" stroke="#3a414a" stroke-width="2" stroke-linejoin="round" fill="none"/><path d="M-470 621l.97-.03.06 1-1.95.1-.06-1.12z" stroke="#3a414a" stroke-width=".05" fill="#3a414a"/><path d="M-421.54 593.9l13.52 6.48-6.4 6.7z" stroke="#3a414a" stroke-width="2" fill="#3a414a"/><path d="M-758.26 550c0 27.6-22.38 50-50 50-27.6 0-50-22.4-50-50s22.4-50 50-50c27.62 0 50 22.4 50 50z" stroke="#3a414a" stroke-width="2" fill="#fff"/><use xlink:href="#e" transform="matrix(1,0,0,1,-853.2577154961332,505) translate(35.15787760416667 52.46527777777778)"/><path d="M-860.08 554.15l-3.97.7-3.58 1-2.68 1.1-2.1 1.12-1.66 1.14-1.36 1.17-1.12 1.18-.93 1.24-.78 1.28-.64 1.38-.5 1.5-.37 1.64-.22 1.85v2.13l.25 2.5.63 3 1.2 3.64 2 4.5 3.2 5.5 4.7 6.38 6.15 6.74 6.86 6.08 6.5 4.66 5.58 3.14 4.52 1.95 3.63 1.12 2.95.57 2.43.2 2.06-.04 1.77-.23 1.56-.37 1.4-.5 1.27-.6 1.18-.75 1.12-.88 1.07-1.04.08-.1" stroke="#3a414a" stroke-width="2" stroke-linejoin="round" fill="none"/><path d="M-859.13 553.67l.16 1.28-.97.17-.33-1.92 1.12-.2z" stroke="#3a414a" stroke-width=".05" fill="#3a414a"/><path d="M-813.27 603.88v15l-8.82-2.87z" stroke="#3a414a" stroke-width="2" fill="#3a414a"/><path d="M-781.02 360.68l-17.52 122.7" stroke="#3a414a" fill="none"/><path d="M-780.55 360.76l-.94-.14.06-.34.17-.02.82-.2z" stroke="#3a414a" stroke-width=".05" fill="#3a414a"/><path d="M-800.62 498l-2.58-14.78 9.18 1.3z" stroke="#3a414a" fill="#3a414a"/><path d="M-824.06 501.1l19.16-125.5" stroke="#3a414a" fill="none"/><path d="M-823.6 501.15l-.03.27-1 .33.1-.74z" stroke="#3a414a" stroke-width=".05" fill="#3a414a"/><path d="M-802.67 361l2.43 14.8-9.16-1.4z" stroke="#3a414a" fill="#3a414a"/><path d="M-534.95 583.84l-9.9-.85m-9.92-.86l-19.82-1.7m-9.9-.86l-19.82-1.7m-9.9-.85l-19.83-1.7m-9.9-.86l-19.83-1.7m-9.9-.85l-19.83-1.7m-9.92-.86l-19.83-1.7m-9.9-.85l-9.92-.84" stroke="#6f7681" fill="none"/><path d="M-520.24 585.1l-14.6 3.4.8-9.23zM-757.78 564.7l14.6-3.4-.78 9.23z" stroke="#6f7681" fill="#6f7681"/><path d="M-652.4 193.5l-3.54 9.17m-3.53 9.18l-7.06 18.35m-3.53 9.17l-7.06 18.35m-3.53 9.18l-7.07 18.35m-3.52 9.17l-7.07 18.35m-3.54 9.17l-7.06 18.35m-3.53 9.17l-7.06 18.35M-723 377l-7.06 18.34m-3.53 9.18l-7.07 18.34m-3.53 9.18l-7.06 18.35m-3.53 9.16l-7.06 18.35m-3.53 9.2l-3.52 9.16" stroke="#6f7681" fill="none"/><path d="M-647.1 179.72l-.8 14.98-8.66-3.33zM-774.22 510.04l.8-14.98 8.65 3.33z" stroke="#6f7681" fill="#6f7681"/><path d="M-746.6 522.94l9.25-4m9.26-3.97l18.52-7.98m9.25-4l18.5-7.97m9.27-3.98l18.5-7.98m9.26-4l18.5-7.96m9.26-3.98l18.5-7.97m9.27-4l18.5-7.96m9.26-4l18.5-7.97m9.25-4l18.5-7.97m9.27-3.98l18.5-7.98m9.26-4l18.5-7.96m9.26-4l18.5-7.96m9.27-4l18.52-7.96m9.25-4l18.5-7.96m9.26-4l9.26-3.98" stroke="#6f7681" fill="none"/><path d="M-760.16 528.78l11.27-9.9 3.68 8.52zM-344.35 349.64l-11.27 9.9-3.67-8.5z" stroke="#6f7681" fill="#6f7681"/><defs><path d="M52 0l541-1490h220L1361 0h-200l-149-416H398L254 0H52zm404-582h497c-103-290-145-390-251-756-108 377-145 460-246 756" id="f"/><path d="M653-1490V0H466v-1314h-10L96-1047v-204l324-239h233" id="g"/><g id="a"><use transform="matrix(0.010850694444444444,0,0,0.010850694444444444,0,0)" xlink:href="#f"/><use transform="matrix(0.00759548611111111,0,0,0.00759548611111111,15.33203125,3.7673611111111107)" xlink:href="#g"/></g><path d="M180 0v-1490h528c311 0 458 177 458 395 0 191-114 278-244 313v14c139 9 302 137 302 371 0 225-148 397-499 397H180zm190-168h350c232 0 321-102 321-231 0-149-120-277-311-277H370v508zm0-668h328c160 0 286-101 286-255 0-129-87-231-280-231H370v486" id="h"/><g id="b"><use transform="matrix(0.010850694444444444,0,0,0.010850694444444444,0,0)" xlink:href="#h"/><use transform="matrix(0.00759548611111111,0,0,0.00759548611111111,14.539930555555555,3.7673611111111107)" xlink:href="#g"/></g><path d="M783 20c-382 0-661-292-661-764 0-473 279-766 661-766 302 0 548 182 601 489h-190c-42-204-217-313-411-313-268 0-476 208-476 590 0 381 209 588 476 588 195 0 369-110 411-313h190c-52 303-296 489-601 489" id="i"/><g id="c"><use transform="matrix(0.010850694444444444,0,0,0.010850694444444444,0,0)" xlink:href="#i"/><use transform="matrix(0.00759548611111111,0,0,0.00759548611111111,16.23263888888889,3.7673611111111107)" xlink:href="#g"/></g><path d="M645 0H180v-1490h484c435 0 692 280 692 742 0 466-257 748-711 748zM370-168h263c363 0 539-218 539-580 0-358-176-574-521-574H370v1154" id="j"/><g id="d"><use transform="matrix(0.010850694444444444,0,0,0.010850694444444444,0,0)" xlink:href="#j"/><use transform="matrix(0.00759548611111111,0,0,0.00759548611111111,16.03732638888889,3.7673611111111107)" xlink:href="#g"/></g><path d="M180 0v-1490h908v168H370v486h669v168H370v500h727V0H180" id="k"/><g id="e"><use transform="matrix(0.010850694444444444,0,0,0.010850694444444444,0,0)" xlink:href="#k"/><use transform="matrix(0.00759548611111111,0,0,0.00759548611111111,13.35720486111111,3.7673611111111107)" xlink:href="#g"/></g></defs></g></svg>