<svg xmlns="http://www.w3.org/2000/svg" xmlns:xlink="http://www.w3.org/1999/xlink" xmlns:lucid="lucid" width="942" height="421.5"><g transform="translate(1061.0014616565861 -18.999862166302066)" lucid:page-tab-id="0_0"><path d="M-1006 380c-29.82 0-54-17.9-54-40 0-17.67 14.62-32.58 37.3-38.04C-1024 250-934 240-898 260c18-30 108-20 108 10 54-10 108 30 72 80 36 40 0 90-72 70-18 26-90 26-108 0-36 20-108 10-108-40z" stroke="#3a414a" stroke-width="2" fill="#fff"/><use xlink:href="#a" transform="matrix(1,0,0,1,-1055,245) translate(76.04123263888889 104.65277777777777)"/><use xlink:href="#b" transform="matrix(1,0,0,1,-1055,245) translate(143.97743055555554 104.65277777777777)"/><use xlink:href="#c" transform="matrix(1,0,0,1,-1055,245) translate(246.25607638888889 104.65277777777777)"/><path d="M-420 164c0 8.84-49.25 16-110 16s-110-7.16-110-16V36c0-8.84 49.25-16 110-16s110 7.16 110 16z" stroke="#3a414a" stroke-width="2" fill="#fff"/><path d="M-420 36c0 8.84-49.25 16-110 16s-110-7.16-110-16" stroke="#3a414a" stroke-width="2" fill="none"/><use xlink:href="#d" transform="matrix(1,0,0,1,-635,57) translate(40.671657986111114 54.71527777777778)"/><use xlink:href="#e" transform="matrix(1,0,0,1,-635,57) translate(56.752387152777786 81.60329861111111)"/><path d="M-280 286a6 6 0 0 1 6-6h148a6 6 0 0 1 6 6v108a6 6 0 0 1-6 6h-148a6 6 0 0 1-6-6z" stroke="#3a414a" stroke-width="2" fill="#fff"/><use xlink:href="#f" transform="matrix(1,0,0,1,-268,292) translate(-3.582031249999986 42.63975694444444)"/><use xlink:href="#g" transform="matrix(1,0,0,1,-268,292) translate(59.70464409722222 69.52777777777777)"/><path d="M-282 340h-410.3" stroke="#3a414a" stroke-width="2" fill="none"/><path d="M-281 340.98h-1.03v-1.96h1.03z" stroke="#3a414a" stroke-width=".05" fill="#3a414a"/><path d="M-707.58 340l14.27-4.63v9.26z" stroke="#3a414a" stroke-width="2" fill="#3a414a"/><use xlink:href="#h" transform="matrix(1,0,0,1,-539.3742109239869,314.4895833333333) translate(0 17.22222222222222)"/><path d="M-705.65 365.52h406.15" stroke="#3a414a" stroke-width="2" fill="none"/><path d="M-705.62 366.5h-.6l-.86-1.95h1.46z" stroke="#3a414a" stroke-width=".05" fill="#3a414a"/><path d="M-284.24 365.52l-14.26 4.64v-9.27z" stroke="#3a414a" stroke-width="2" fill="#3a414a"/><use xlink:href="#i" transform="matrix(1,0,0,1,-548.0660175293058,369.5249288727116) translate(0 17.22222222222222)"/><path d="M-170.68 270.37l-231.95-122.3" stroke="#3a414a" stroke-width="2" fill="none"/><path d="M-157.18 277.5l-14.78-2.56 4.33-8.2zM-416.14 140.94l14.78 2.55-4.32 8.2z" stroke="#3a414a" stroke-width="2" fill="#3a414a"/><use xlink:href="#j" transform="matrix(1,0,0,1,-324.3948057633494,170.74096425839113) translate(0 17.22222222222222)"/><use xlink:href="#k" transform="matrix(1,0,0,1,-324.3948057633494,170.74096425839113) translate(44.77690972222222 17.22222222222222)"/><path d="M-430.74 172.65l189.55 97.86" stroke="#3a414a" stroke-width="2" fill="none"/><path d="M-431.16 173.52l-1.84-.95 2.73-.76z" stroke="#3a414a" stroke-width=".05" fill="#3a414a"/><path d="M-227.62 277.5l-14.8-2.4 4.25-8.25z" stroke="#3a414a" stroke-width="2" fill="#3a414a"/><use xlink:href="#l" transform="matrix(1,0,0,1,-466.12012562247736,220.06675615964613) translate(0 17.22222222222222)"/><path d="M-635 170.8l-122.88 86.05" stroke="#3a414a" stroke-width="2" fill="none"/><path d="M-634.7 170l1.56.65h.03l-1.37.96-1.12-1.6.36-.23z" stroke="#3a414a" stroke-width=".05" fill="#3a414a"/><path d="M-770.38 265.6l9.02-11.97 5.32 7.6z" stroke="#3a414a" stroke-width="2" fill="#3a414a"/><use xlink:href="#m" transform="matrix(1,0,0,1,-708.7462988003755,221.26635495972332) translate(0 17.22222222222222)"/><path d="M-795.98 236.97l139.65-94.38" stroke="#3a414a" stroke-width="2" fill="none"/><path d="M-808.63 245.5l9.22-11.82 5.18 7.7zM-643.68 134.04l-9.23 11.83-5.2-7.68z" stroke="#3a414a" stroke-width="2" fill="#3a414a"/><g><use xlink:href="#n" transform="matrix(1,0,0,1,-822.4531023044284,163.05863848564275) translate(0 17.22222222222222)"/></g><defs><path d="M783 20c-382 0-661-292-661-764 0-473 279-766 661-766 302 0 548 182 601 489h-190c-42-204-217-313-411-313-268 0-476 208-476 590 0 381 209 588 476 588 195 0 369-110 411-313h190c-52 303-296 489-601 489" id="o"/><path d="M338-1490V0H158v-1490h180" id="p"/><path d="M613 24c-304 0-509-231-509-576 0-350 205-580 509-580 305 0 511 230 511 580 0 345-206 576-511 576zm0-161c226 0 329-195 329-415 0-222-103-419-329-419-223 0-326 196-326 419 0 220 103 415 326 415" id="q"/><path d="M537 14c-226 0-379-139-379-422v-710h180v695c0 172 97 275 253 275 160 0 281-109 281-300v-670h181V0H879v-209C806-46 684 14 537 14" id="r"/><path d="M577 24c-279 0-473-224-473-580 0-354 195-576 474-576 218 0 287 134 324 193h14v-551h180V0H922v-173h-20C865-111 790 24 577 24zm27-161c203 0 314-172 314-421 0-247-108-413-314-413-212 0-317 181-317 413 0 235 108 421 317 421" id="s"/><g id="a"><use transform="matrix(0.010850694444444444,0,0,0.010850694444444444,0,0)" xlink:href="#o"/><use transform="matrix(0.010850694444444444,0,0,0.010850694444444444,16.23263888888889,0)" xlink:href="#p"/><use transform="matrix(0.010850694444444444,0,0,0.010850694444444444,21.614583333333336,0)" xlink:href="#q"/><use transform="matrix(0.010850694444444444,0,0,0.010850694444444444,34.939236111111114,0)" xlink:href="#r"/><use transform="matrix(0.010850694444444444,0,0,0.010850694444444444,48.07942708333333,0)" xlink:href="#s"/></g><path d="M180 0v-1490h528c311 0 458 177 458 395 0 191-114 278-244 313v14c139 9 302 137 302 371 0 225-148 397-499 397H180zm190-168h350c232 0 321-102 321-231 0-149-120-277-311-277H370v508zm0-668h328c160 0 286-101 286-255 0-129-87-231-280-231H370v486" id="t"/><path d="M628 24c-324 0-524-230-524-574 0-343 198-582 503-582 237 0 487 146 487 559v75H286c9 234 145 362 343 362 132 0 231-58 273-172l174 48C1024-91 857 24 628 24zM287-650h624c-17-190-120-322-304-322-192 0-309 151-320 322" id="u"/><path d="M598-1118v154H368v674c0 100 37 144 132 144 23 0 62-6 92-12L629-6c-37 13-88 20-134 20-193 0-307-107-307-290v-688H20v-154h168v-266h180v266h230" id="v"/><path d="M158 0v-1118h174v172h12c41-113 157-188 290-188 26 0 70 2 91 3v181c-11-2-60-10-108-10-161 0-279 109-279 260V0H158" id="w"/><path d="M158 0v-1118h180V0H158zm91-1301c-68 0-125-53-125-119s57-119 125-119c69 0 126 53 126 119s-57 119-126 119" id="x"/><path d="M677 24c-213 0-288-135-325-197h-20V0H158v-1490h180v551h14c37-59 106-193 324-193 279 0 474 222 474 576 0 356-194 580-473 580zm-27-161c209 0 317-186 317-421 0-232-105-413-317-413-206 0-314 166-314 413 0 249 111 421 314 421" id="y"/><g id="b"><use transform="matrix(0.010850694444444444,0,0,0.010850694444444444,0,0)" xlink:href="#t"/><use transform="matrix(0.010850694444444444,0,0,0.010850694444444444,14.539930555555555,0)" xlink:href="#u"/><use transform="matrix(0.010850694444444444,0,0,0.010850694444444444,27.49565972222222,0)" xlink:href="#v"/><use transform="matrix(0.010850694444444444,0,0,0.010850694444444444,34.765625,0)" xlink:href="#w"/><use transform="matrix(0.010850694444444444,0,0,0.010850694444444444,42.76258680555555,0)" xlink:href="#u"/><use transform="matrix(0.010850694444444444,0,0,0.010850694444444444,55.71831597222221,0)" xlink:href="#x"/><use transform="matrix(0.010850694444444444,0,0,0.010850694444444444,61.10026041666666,0)" xlink:href="#y"/><use transform="matrix(0.010850694444444444,0,0,0.010850694444444444,74.70703124999999,0)" xlink:href="#u"/><use transform="matrix(0.010850694444444444,0,0,0.010850694444444444,87.66276041666666,0)" xlink:href="#w"/></g><path d="M42 0l247-1490h583c327 0 472 170 434 400-27 167-165 271-324 306v12c166 8 304 151 266 380C1211-164 1016 0 681 0H42zm347-251h256c181 0 281-87 300-209 19-118-59-195-209-195H456zm102-613h232c130 0 250-82 272-213 16-99-43-164-187-164H553" id="z"/><use transform="matrix(0.010850694444444444,0,0,0.010850694444444444,0,0)" xlink:href="#z" id="c"/><path d="M678-1118v154H420V0H240v-964H20v-154h220v-149c0-194 155-293 318-293 85 0 141 18 168 30l-50 154c-19-6-47-17-97-17-111 0-159 58-159 166v109h258" id="A"/><path d="M613 24c-304 0-509-231-509-576 0-350 205-580 509-580 216 0 392 114 453 309l-173 49c-33-115-133-197-280-197-223 0-326 196-326 419 0 220 103 415 326 415 150 0 252-85 285-206l172 49C1010-95 832 24 613 24" id="B"/><path d="M471 26C259 26 90-98 90-318c0-256 228-303 435-329 202-27 287-16 287-108 0-139-79-219-234-219-161 0-248 86-283 164l-173-57c86-203 278-265 451-265 150 0 419 46 419 395V0H815v-152h-12C765-73 660 26 471 26zm31-159c199 0 310-134 310-271v-155c-30 35-226 55-295 64-131 17-246 59-246 186 0 116 97 176 231 176" id="C"/><path d="M338-670V0H158v-1118h173l1 207c72-158 192-221 342-221 226 0 378 139 378 422V0H872v-695c0-172-96-275-252-275-161 0-282 109-282 300" id="D"/><g id="d"><use transform="matrix(0.010850694444444444,0,0,0.010850694444444444,0,0)" xlink:href="#o"/><use transform="matrix(0.010850694444444444,0,0,0.010850694444444444,16.23263888888889,0)" xlink:href="#u"/><use transform="matrix(0.010850694444444444,0,0,0.010850694444444444,29.18836805555556,0)" xlink:href="#w"/><use transform="matrix(0.010850694444444444,0,0,0.010850694444444444,37.90147569444444,0)" xlink:href="#v"/><use transform="matrix(0.010850694444444444,0,0,0.010850694444444444,45.17144097222222,0)" xlink:href="#x"/><use transform="matrix(0.010850694444444444,0,0,0.010850694444444444,50.553385416666664,0)" xlink:href="#A"/><use transform="matrix(0.010850694444444444,0,0,0.010850694444444444,58.77821180555555,0)" xlink:href="#x"/><use transform="matrix(0.010850694444444444,0,0,0.010850694444444444,64.16015625,0)" xlink:href="#B"/><use transform="matrix(0.010850694444444444,0,0,0.010850694444444444,77.07248263888889,0)" xlink:href="#C"/><use transform="matrix(0.010850694444444444,0,0,0.010850694444444444,89.55078125,0)" xlink:href="#v"/><use transform="matrix(0.010850694444444444,0,0,0.010850694444444444,96.82074652777777,0)" xlink:href="#x"/><use transform="matrix(0.010850694444444444,0,0,0.010850694444444444,102.20269097222221,0)" xlink:href="#q"/><use transform="matrix(0.010850694444444444,0,0,0.010850694444444444,115.52734374999997,0)" xlink:href="#D"/></g><path d="M52 0l541-1490h220L1361 0h-200l-149-416H398L254 0H52zm404-582h497c-103-290-145-390-251-756-108 377-145 460-246 756" id="E"/><path d="M338-670V0H158v-1490h180v566c73-149 190-208 336-208 226 0 379 139 379 422V0H872v-695c0-172-96-275-252-275-161 0-282 109-282 300" id="F"/><path d="M140 405l46-156c120 36 205 19 263-150l32-93L54-1118h197c107 313 237 620 324 950 87-331 219-637 326-950h196L606 167c-68 178-176 259-334 259-64 0-113-12-132-21" id="G"/><g id="e"><use transform="matrix(0.010850694444444444,0,0,0.010850694444444444,0,0)" xlink:href="#E"/><use transform="matrix(0.010850694444444444,0,0,0.010850694444444444,15.33203125,0)" xlink:href="#r"/><use transform="matrix(0.010850694444444444,0,0,0.010850694444444444,28.47222222222222,0)" xlink:href="#v"/><use transform="matrix(0.010850694444444444,0,0,0.010850694444444444,35.7421875,0)" xlink:href="#F"/><use transform="matrix(0.010850694444444444,0,0,0.010850694444444444,48.88237847222222,0)" xlink:href="#q"/><use transform="matrix(0.010850694444444444,0,0,0.010850694444444444,62.20703125,0)" xlink:href="#w"/><use transform="matrix(0.010850694444444444,0,0,0.010850694444444444,70.92013888888889,0)" xlink:href="#x"/><use transform="matrix(0.010850694444444444,0,0,0.010850694444444444,76.30208333333333,0)" xlink:href="#v"/><use transform="matrix(0.010850694444444444,0,0,0.010850694444444444,84.00607638888887,0)" xlink:href="#G"/></g><path d="M763 24c-353 0-583-224-583-531v-983h190v968c0 214 149 370 393 370 243 0 391-156 391-370v-968h190v983c0 307-230 531-581 531" id="H"/><path d="M158 0v-1118h175l1 205c55-151 181-225 313-225 147 0 245 90 285 228 53-141 190-228 352-228 194 0 352 125 352 384V0h-181v-749c0-161-105-225-225-225-151 0-243 103-243 244V0H807v-767c0-124-93-207-219-207-131 0-250 92-250 270V0H158" id="I"/><g id="f"><use transform="matrix(0.010850694444444444,0,0,0.010850694444444444,0,0)" xlink:href="#H"/><use transform="matrix(0.010850694444444444,0,0,0.010850694444444444,16.536458333333332,0)" xlink:href="#D"/><use transform="matrix(0.010850694444444444,0,0,0.010850694444444444,29.665798611111104,0)" xlink:href="#v"/><use transform="matrix(0.010850694444444444,0,0,0.010850694444444444,36.71874999999999,0)" xlink:href="#u"/><use transform="matrix(0.010850694444444444,0,0,0.010850694444444444,49.67447916666666,0)" xlink:href="#w"/><use transform="matrix(0.010850694444444444,0,0,0.010850694444444444,58.38758680555554,0)" xlink:href="#D"/><use transform="matrix(0.010850694444444444,0,0,0.010850694444444444,71.51692708333331,0)" xlink:href="#u"/><use transform="matrix(0.010850694444444444,0,0,0.010850694444444444,84.47265624999999,0)" xlink:href="#F"/><use transform="matrix(0.010850694444444444,0,0,0.010850694444444444,97.6128472222222,0)" xlink:href="#I"/><use transform="matrix(0.010850694444444444,0,0,0.010850694444444444,117.07899305555553,0)" xlink:href="#u"/><use transform="matrix(0.010850694444444444,0,0,0.010850694444444444,130.0347222222222,0)" xlink:href="#D"/></g><path d="M-44 0l756-1490h400L1387 0h-327l-57-346H473L305 0H-44zm634-585h373c-37-212-56-397-81-666-107 262-185 453-292 666" id="J"/><use transform="matrix(0.010850694444444444,0,0,0.010850694444444444,0,0)" xlink:href="#J" id="g"/><path fill="#333" d="M659 0H135v-1490h529c448 0 721 280 721 744 0 466-273 746-726 746zM440-263h204c287 0 437-148 437-483 0-333-150-481-435-481H440v964" id="K"/><path fill="#333" d="M440 22C227 22 68-92 68-313c0-250 202-322 422-343 195-21 271-24 271-105 0-95-63-149-175-149-116 0-187 57-211 129l-275-46c57-194 237-305 487-305 240 0 474 108 474 379V0H777v-155h-10C713-51 605 22 440 22zm85-211c140 0 238-93 238-211v-121c-37 26-156 42-222 51-111 16-185 59-185 149 0 87 70 132 169 132" id="L"/><path fill="#333" d="M683-1118v229H474v562c0 71 29 104 102 104 23 0 73-7 95-13l43 225C647 9 580 16 520 16 296 16 174-96 174-301v-588H20v-229h154v-266h300v266h209" id="M"/><path fill="#333" d="M633 22C291 22 81-200 81-553c0-345 210-579 537-579 292 0 525 185 525 567v84H378c7 183 109 277 260 277 105 0 184-46 216-132l272 51C1071-99 893 22 633 22zM380-669h474c-15-146-94-237-233-237-143 0-229 99-241 237" id="N"/><path fill="#333" d="M428-647V0H128v-1118h283l4 231c63-156 176-245 348-245 232 0 384 159 384 421V0H847v-659c0-139-76-222-202-222-128 0-217 86-217 234" id="O"/><path fill="#333" d="M786 20C389 20 94-260 94-744c0-487 299-766 692-766 339 0 597 194 641 529h-309c-28-162-156-258-326-258-233 0-388 179-388 495 0 323 157 493 387 493 170 0 298-97 328-259h309c-34 277-266 530-642 530" id="P"/><path fill="#333" d="M128 0v-1118h290v195h12c54-169 184-238 367-200v268c-27-8-86-15-130-15-138 0-239 95-239 234V0H128" id="Q"/><path fill="#333" d="M49 0l509-1490h400L1480 0h-339l-115-346H497L386 0H49zm524-585h374c-75-213-124-402-192-666-66 268-110 453-182 666" id="R"/><g id="h"><use transform="matrix(0.008680555555555556,0,0,0.008680555555555556,0,0)" xlink:href="#K"/><use transform="matrix(0.008680555555555556,0,0,0.008680555555555556,12.838541666666668,0)" xlink:href="#L"/><use transform="matrix(0.008680555555555556,0,0,0.008680555555555556,23.159722222222225,0)" xlink:href="#M"/><use transform="matrix(0.008680555555555556,0,0,0.008680555555555556,29.49652777777778,0)" xlink:href="#N"/><use transform="matrix(0.008680555555555556,0,0,0.008680555555555556,40.08680555555556,0)" xlink:href="#O"/><use transform="matrix(0.006076388888888889,0,0,0.006076388888888889,51.15451388888889,3.013888888888889)" xlink:href="#P"/><use transform="matrix(0.006076388888888889,0,0,0.006076388888888889,60.360243055555564,3.013888888888889)" xlink:href="#N"/><use transform="matrix(0.006076388888888889,0,0,0.006076388888888889,67.7734375,3.013888888888889)" xlink:href="#Q"/><use transform="matrix(0.006076388888888889,0,0,0.006076388888888889,73.08420138888889,3.013888888888889)" xlink:href="#M"/><use transform="matrix(0.006076388888888889,0,0,0.006076388888888889,77.64149305555556,3.013888888888889)" xlink:href="#R"/></g><path fill="#333" d="M681 22C323 22 94-145 85-462h297c10 151 131 226 296 226 163 0 271-77 271-190 0-102-95-149-257-189l-164-41c-252-61-403-188-403-405 0-269 236-449 560-449 330 0 546 183 551 445H941c-11-119-106-188-259-188-156 0-244 72-244 172-3 156 226 185 373 221 250 61 445 186 445 436 0 271-213 446-575 446" id="S"/><path fill="#333" d="M120 396l69-226c123 42 245 23 254-107l8-60L31-1118h319c87 288 199 559 259 872 72-308 185-583 277-872h315L726 132c-68 181-186 294-410 294-79 0-153-13-196-30" id="T"/><path fill="#333" d="M572 22C302 22 117-98 78-306l279-48c29 105 101 156 224 156 114 0 185-48 185-115 0-118-228-130-337-155-215-49-322-150-322-317 0-215 187-347 470-347 265 0 424 116 466 298l-266 47c-24-76-87-130-196-130-98 0-174 46-174 113 0 56 38 95 144 117l201 40c216 44 320 143 320 302 0 220-207 367-500 367" id="U"/><path fill="#333" d="M135 0v-1490h591c327 0 492 160 492 383 0 177-115 286-268 320v15c168 8 326 140 326 361 0 236-176 411-512 411H135zm305-251h264c179 0 258-76 258-189 0-125-97-215-250-215H440v404zm0-613h241c131 0 228-74 228-194 0-109-79-183-222-183H440v377" id="V"/><g id="i"><use transform="matrix(0.008680555555555556,0,0,0.008680555555555556,0,0)" xlink:href="#K"/><use transform="matrix(0.008680555555555556,0,0,0.008680555555555556,12.838541666666668,0)" xlink:href="#L"/><use transform="matrix(0.008680555555555556,0,0,0.008680555555555556,23.159722222222225,0)" xlink:href="#M"/><use transform="matrix(0.008680555555555556,0,0,0.008680555555555556,29.49652777777778,0)" xlink:href="#N"/><use transform="matrix(0.008680555555555556,0,0,0.008680555555555556,40.08680555555556,0)" xlink:href="#O"/><use transform="matrix(0.006076388888888889,0,0,0.006076388888888889,51.15451388888889,3.013888888888889)" xlink:href="#P"/><use transform="matrix(0.006076388888888889,0,0,0.006076388888888889,60.360243055555564,3.013888888888889)" xlink:href="#N"/><use transform="matrix(0.006076388888888889,0,0,0.006076388888888889,67.7734375,3.013888888888889)" xlink:href="#Q"/><use transform="matrix(0.006076388888888889,0,0,0.006076388888888889,73.08420138888889,3.013888888888889)" xlink:href="#M"/><use transform="matrix(0.006076388888888889,0,0,0.006076388888888889,77.64149305555556,3.013888888888889)" xlink:href="#S"/><use transform="matrix(0.006076388888888889,0,0,0.006076388888888889,85.78993055555556,3.013888888888889)" xlink:href="#T"/><use transform="matrix(0.006076388888888889,0,0,0.006076388888888889,93.28211805555556,3.013888888888889)" xlink:href="#U"/><use transform="matrix(0.006076388888888889,0,0,0.006076388888888889,100.2517361111111,3.013888888888889)" xlink:href="#V"/></g><path fill="#333" d="M789 20C394 20 94-260 94-744c0-487 300-766 695-766s695 279 695 766c0 485-300 764-695 764zm0-271c231 0 385-174 385-493 0-321-154-495-385-495s-385 175-385 495c0 319 154 493 385 493" id="W"/><path fill="#333" d="M342-723c-98 0-173-75-173-172s75-172 173-172 173 75 173 172-75 172-173 172zm0 742c-98 0-173-75-173-172s75-172 173-172 173 75 173 172S440 19 342 19" id="X"/><g id="j"><use transform="matrix(0.008680555555555556,0,0,0.008680555555555556,0,0)" xlink:href="#W"/><use transform="matrix(0.008680555555555556,0,0,0.008680555555555556,13.697916666666668,0)" xlink:href="#S"/><use transform="matrix(0.006076388888888889,0,0,0.006076388888888889,25.338541666666668,3.013888888888889)" xlink:href="#R"/><use transform="matrix(0.008680555555555556,0,0,0.008680555555555556,34.62934027777778,0)" xlink:href="#X"/></g><g id="k"><use transform="matrix(0.008680555555555556,0,0,0.008680555555555556,0,0)" xlink:href="#P"/><use transform="matrix(0.008680555555555556,0,0,0.008680555555555556,13.151041666666668,0)" xlink:href="#N"/><use transform="matrix(0.008680555555555556,0,0,0.008680555555555556,23.741319444444446,0)" xlink:href="#Q"/><use transform="matrix(0.008680555555555556,0,0,0.008680555555555556,31.328125,0)" xlink:href="#M"/><use transform="matrix(0.006076388888888889,0,0,0.006076388888888889,37.838541666666664,3.013888888888889)" xlink:href="#R"/></g><path fill="#333" d="M571 0L49-1490h339c138 427 271 775 384 1244 111-471 237-815 371-1244h337L970 0H571" id="Y"/><path fill="#333" d="M128 0v-1118h300V0H128zm150-1264c-91 0-165-68-165-154 0-85 74-154 165-154 90 0 165 69 165 154 0 86-75 154-165 154" id="Z"/><path fill="#333" d="M750-1118v229H516V0H217v-889H20v-229h197v-86c0-238 156-356 363-356 94 0 178 20 215 31l-54 226c-25-7-61-15-100-15-123-3-131 84-125 200h234" id="aa"/><path fill="#333" d="M169-607c0-330 107-732 258-974h279c-145 311-231 674-231 974 0 262 67 512 231 886H427C258-1 169-307 169-607" id="ab"/><path fill="#333" d="M67 279c166-379 230-627 230-886 0-300-86-663-230-974h278c151 241 258 644 258 974 0 302-90 608-258 886H67" id="ac"/><g id="l"><use transform="matrix(0.008680555555555556,0,0,0.008680555555555556,0,0)" xlink:href="#Y"/><use transform="matrix(0.008680555555555556,0,0,0.008680555555555556,12.1875,0)" xlink:href="#N"/><use transform="matrix(0.008680555555555556,0,0,0.008680555555555556,22.77777777777778,0)" xlink:href="#Q"/><use transform="matrix(0.008680555555555556,0,0,0.008680555555555556,30.147569444444443,0)" xlink:href="#Z"/><use transform="matrix(0.008680555555555556,0,0,0.008680555555555556,34.96527777777778,0)" xlink:href="#aa"/><use transform="matrix(0.008680555555555556,0,0,0.008680555555555556,42.03993055555556,0)" xlink:href="#T"/><use transform="matrix(0.008680555555555556,0,0,0.008680555555555556,52.74305555555556,0)" xlink:href="#ab"/><use transform="matrix(0.008680555555555556,0,0,0.008680555555555556,59.444444444444436,0)" xlink:href="#P"/><use transform="matrix(0.008680555555555556,0,0,0.008680555555555556,72.59548611111111,0)" xlink:href="#N"/><use transform="matrix(0.008680555555555556,0,0,0.008680555555555556,83.18576388888889,0)" xlink:href="#Q"/><use transform="matrix(0.008680555555555556,0,0,0.008680555555555556,90.77256944444444,0)" xlink:href="#M"/><use transform="matrix(0.006076388888888889,0,0,0.006076388888888889,97.28298611111111,3.013888888888889)" xlink:href="#S"/><use transform="matrix(0.006076388888888889,0,0,0.006076388888888889,105.43142361111111,3.013888888888889)" xlink:href="#T"/><use transform="matrix(0.006076388888888889,0,0,0.006076388888888889,112.92361111111111,3.013888888888889)" xlink:href="#U"/><use transform="matrix(0.006076388888888889,0,0,0.006076388888888889,119.89322916666667,3.013888888888889)" xlink:href="#V"/><use transform="matrix(0.008680555555555556,0,0,0.008680555555555556,128.12673611111111,0)" xlink:href="#ac"/></g><g id="m"><use transform="matrix(0.008680555555555556,0,0,0.008680555555555556,0,0)" xlink:href="#Y"/><use transform="matrix(0.008680555555555556,0,0,0.008680555555555556,12.1875,0)" xlink:href="#N"/><use transform="matrix(0.008680555555555556,0,0,0.008680555555555556,22.77777777777778,0)" xlink:href="#Q"/><use transform="matrix(0.008680555555555556,0,0,0.008680555555555556,30.147569444444443,0)" xlink:href="#Z"/><use transform="matrix(0.008680555555555556,0,0,0.008680555555555556,34.96527777777778,0)" xlink:href="#aa"/><use transform="matrix(0.008680555555555556,0,0,0.008680555555555556,42.03993055555556,0)" xlink:href="#T"/><use transform="matrix(0.008680555555555556,0,0,0.008680555555555556,52.74305555555556,0)" xlink:href="#ab"/><use transform="matrix(0.008680555555555556,0,0,0.008680555555555556,59.444444444444436,0)" xlink:href="#P"/><use transform="matrix(0.008680555555555556,0,0,0.008680555555555556,72.59548611111111,0)" xlink:href="#N"/><use transform="matrix(0.008680555555555556,0,0,0.008680555555555556,83.18576388888889,0)" xlink:href="#Q"/><use transform="matrix(0.008680555555555556,0,0,0.008680555555555556,90.77256944444444,0)" xlink:href="#M"/><use transform="matrix(0.006076388888888889,0,0,0.006076388888888889,97.28298611111111,3.013888888888889)" xlink:href="#R"/><use transform="matrix(0.008680555555555556,0,0,0.008680555555555556,106.57378472222224,0)" xlink:href="#ac"/></g><g id="n"><use transform="matrix(0.008680555555555556,0,0,0.008680555555555556,0,0)" xlink:href="#W"/><use transform="matrix(0.008680555555555556,0,0,0.008680555555555556,13.697916666666668,0)" xlink:href="#S"/><use transform="matrix(0.006076388888888889,0,0,0.006076388888888889,25.338541666666668,3.013888888888889)" xlink:href="#V"/><use transform="matrix(0.008680555555555556,0,0,0.008680555555555556,33.572048611111114,0)" xlink:href="#X"/><use transform="matrix(0.008680555555555556,0,0,0.008680555555555556,39.509548611111114,0)" xlink:href="#P"/><use transform="matrix(0.008680555555555556,0,0,0.008680555555555556,52.660590277777786,0)" xlink:href="#N"/><use transform="matrix(0.008680555555555556,0,0,0.008680555555555556,63.250868055555564,0)" xlink:href="#Q"/><use transform="matrix(0.008680555555555556,0,0,0.008680555555555556,70.83767361111111,0)" xlink:href="#M"/><use transform="matrix(0.006076388888888889,0,0,0.006076388888888889,77.34809027777779,3.013888888888889)" xlink:href="#S"/><use transform="matrix(0.006076388888888889,0,0,0.006076388888888889,85.49652777777779,3.013888888888889)" xlink:href="#T"/><use transform="matrix(0.006076388888888889,0,0,0.006076388888888889,92.98871527777779,3.013888888888889)" xlink:href="#U"/><use transform="matrix(0.006076388888888889,0,0,0.006076388888888889,99.95833333333333,3.013888888888889)" xlink:href="#V"/></g></defs></g></svg>