<svg xmlns="http://www.w3.org/2000/svg" xmlns:xlink="http://www.w3.org/1999/xlink" xmlns:lucid="lucid" width="808" height="521"><g transform="translate(580 -720)" lucid:page-tab-id="0_0"><path d="M-460 806a6 6 0 0 1 6-6h128a6 6 0 0 1 6 6v188a6 6 0 0 1-6 6h-128a6 6 0 0 1-6-6z" stroke="#3a414a" stroke-width="2" fill="#fff"/><path d="M-368 904c0 12.9-10.45 23.33-23.33 23.33-12.9 0-23.34-10.44-23.34-23.33 0-12.9 10.45-23.33 23.34-23.33 12.88 0 23.33 10.44 23.33 23.33z" stroke="#3a414a" stroke-width="2" fill="#fff"/><path d="M-391.33 880.17v47.66" stroke="#3a414a" fill="none"/><path d="M-390.86 879.7v.48h-.95v-.5h.5zM-390.86 928.32h-.5l-.45-.03v-.48h.94z" stroke="#3a414a" stroke-width=".05" fill="#3a414a"/><path d="M-415.17 904h47.67" stroke="#3a414a" fill="none"/><path d="M-415.15 904.48h-.5l-.02-.52.05-.44h.47zM-367 904.04l-.05.44h-.46v-.96h.48z" stroke="#3a414a" stroke-width=".05" fill="#3a414a"/><path d="M-460 1046a6 6 0 0 1 6-6h128a6 6 0 0 1 6 6v188a6 6 0 0 1-6 6h-128a6 6 0 0 1-6-6z" stroke="#3a414a" stroke-width="2" fill="#fff"/><path d="M-426.67 1126a6 6 0 0 1 6-6h60a6 6 0 0 1 6 6v33.33a6 6 0 0 1-6 6h-60a6 6 0 0 1-6-6z" stroke="#3a414a" stroke-width="2" fill="#fff"/><path d="M-427.17 1142.67h73" stroke="#3a414a" fill="none"/><path d="M-427.15 1143.14h-.52v-.95h.52zM-353.67 1143.14h-.5v-.95h.5z" stroke="#3a414a" stroke-width=".05" fill="#3a414a"/><path d="M-240 806a6 6 0 0 1 6-6h128a6 6 0 0 1 6 6v188a6 6 0 0 1-6 6h-128a6 6 0 0 1-6-6z" stroke="#3a414a" stroke-width="2" fill="#fff"/><path d="M-206.67 886a6 6 0 0 1 6-6h60a6 6 0 0 1 6 6v33.33a6 6 0 0 1-6 6h-60a6 6 0 0 1-6-6z" stroke="#3a414a" stroke-width="2" fill="#fff"/><path d="M-207.17 902.67h73" stroke="#3a414a" fill="none"/><path d="M-207.15 903.14h-.52v-.95h.52zM-133.67 903.14h-.5v-.95h.5z" stroke="#3a414a" stroke-width=".05" fill="#3a414a"/><path d="M-240 1046a6 6 0 0 1 6-6h128a6 6 0 0 1 6 6v188a6 6 0 0 1-6 6h-128a6 6 0 0 1-6-6z" stroke="#3a414a" stroke-width="2" fill="#fff"/><path d="M-148 1144c0 12.9-10.45 23.33-23.33 23.33-12.9 0-23.34-10.44-23.34-23.33 0-12.9 10.45-23.33 23.34-23.33 12.88 0 23.33 10.44 23.33 23.33z" stroke="#3a414a" stroke-width="2" fill="#fff"/><path d="M-171.33 1120.17v47.66" stroke="#3a414a" fill="none"/><path d="M-170.86 1119.7v.48h-.95v-.5l.5-.02zM-170.86 1168.32l-.5.02-.45-.05v-.48h.94z" stroke="#3a414a" stroke-width=".05" fill="#3a414a"/><path d="M-195.17 1144h47.67" stroke="#3a414a" fill="none"/><path d="M-195.15 1144.47h-.5l-.02-.5.05-.44h.47zM-147 1144.04l-.04.43h-.47v-.94h.48z" stroke="#3a414a" stroke-width=".05" fill="#3a414a"/><path d="M-20 1046a6 6 0 0 1 6-6h128a6 6 0 0 1 6 6v188a6 6 0 0 1-6 6H-14a6 6 0 0 1-6-6z" stroke="#3a414a" stroke-width="2" fill="#fff"/><path d="M13.33 1126a6 6 0 0 1 6-6h60a6 6 0 0 1 6 6v33.33a6 6 0 0 1-6 6h-60a6 6 0 0 1-6-6z" stroke="#3a414a" stroke-width="2" fill="#fff"/><path d="M12.83 1142.67h73" stroke="#3a414a" fill="none"/><path d="M12.85 1143.14h-.52v-.95h.52zM86.33 1143.14h-.5v-.95h.5z" stroke="#3a414a" stroke-width=".05" fill="#3a414a"/><path d="M-20 806a6 6 0 0 1 6-6h128a6 6 0 0 1 6 6v188a6 6 0 0 1-6 6H-14a6 6 0 0 1-6-6z" stroke="#3a414a" stroke-width="2" fill="#fff"/><path d="M72 904c0 12.9-10.45 23.33-23.33 23.33-12.9 0-23.34-10.44-23.34-23.33 0-12.9 10.45-23.33 23.34-23.33C61.55 880.67 72 891.1 72 904z" stroke="#3a414a" stroke-width="2" fill="#fff"/><path d="M48.67 880.17v47.66" stroke="#3a414a" fill="none"/><path d="M49.14 879.7v.48h-.95v-.5h.5zM49.14 928.32h-.5l-.45-.03v-.48h.94z" stroke="#3a414a" stroke-width=".05" fill="#3a414a"/><path d="M24.83 904H72.5" stroke="#3a414a" fill="none"/><path d="M24.85 904.48h-.5l-.02-.52.05-.44h.47zM73 904.04l-.05.44h-.46v-.96h.48z" stroke="#3a414a" stroke-width=".05" fill="#3a414a"/><path d="M-380 826a6 6 0 0 1 6-6h60a6 6 0 0 1 6 6v163.33a6 6 0 0 1-6 6h-60a6 6 0 0 1-6-6z" fill="none"/><use xlink:href="#a" transform="matrix(1,0,0,1,-380,820) translate(26.033094618055557 55.751736111111114)"/><use xlink:href="#b" transform="matrix(1,0,0,1,-380,820) translate(36 82.63975694444446)"/><use xlink:href="#b" transform="matrix(1,0,0,1,-380,820) translate(36 109.52777777777777)"/><use xlink:href="#c" transform="matrix(1,0,0,1,-380,820) translate(24.392469618055557 136.41579861111111)"/><path d="M-380 1066a6 6 0 0 1 6-6h60a6 6 0 0 1 6 6v163.33a6 6 0 0 1-6 6h-60a6 6 0 0 1-6-6z" fill="none"/><use xlink:href="#d" transform="matrix(1,0,0,1,-380,1060) translate(24.453233506944446 55.751736111111114)"/><use xlink:href="#b" transform="matrix(1,0,0,1,-380,1060) translate(36 82.63975694444446)"/><use xlink:href="#b" transform="matrix(1,0,0,1,-380,1060) translate(36 109.52777777777777)"/><use xlink:href="#e" transform="matrix(1,0,0,1,-380,1060) translate(24.172200520833336 136.41579861111111)"/><path d="M-160 826a6 6 0 0 1 6-6h60a6 6 0 0 1 6 6v163.33a6 6 0 0 1-6 6h-60a6 6 0 0 1-6-6z" fill="none"/><use xlink:href="#f" transform="matrix(1,0,0,1,-160,820) translate(26.597330729166668 55.751736111111114)"/><use xlink:href="#b" transform="matrix(1,0,0,1,-160,820) translate(36 82.63975694444446)"/><use xlink:href="#b" transform="matrix(1,0,0,1,-160,820) translate(36 109.52777777777777)"/><use xlink:href="#g" transform="matrix(1,0,0,1,-160,820) translate(24.956705729166668 136.41579861111111)"/><path d="M156 827.33a6 6 0 0 1 6-6h60a6 6 0 0 1 6 6v163.34a6 6 0 0 1-6 6h-60a6 6 0 0 1-6-6z" fill="none"/><use xlink:href="#h" transform="matrix(1,0,0,1,156,821.3333333333335) translate(23.103407118055557 55.751736111111114)"/><use xlink:href="#b" transform="matrix(1,0,0,1,156,821.3333333333335) translate(36 82.63975694444446)"/><use xlink:href="#b" transform="matrix(1,0,0,1,156,821.3333333333335) translate(36 109.52777777777777)"/><use xlink:href="#i" transform="matrix(1,0,0,1,156,821.3333333333335) translate(21.523546006944446 136.41579861111111)"/><path d="M156 1067.33a6 6 0 0 1 6-6h60a6 6 0 0 1 6 6v163.34a6 6 0 0 1-6 6h-60a6 6 0 0 1-6-6z" fill="none"/><use xlink:href="#j" transform="matrix(1,0,0,1,156,1061.3333333333335) translate(21.462782118055557 55.751736111111114)"/><use xlink:href="#b" transform="matrix(1,0,0,1,156,1061.3333333333335) translate(36 82.63975694444446)"/><use xlink:href="#b" transform="matrix(1,0,0,1,156,1061.3333333333335) translate(36 109.52777777777777)"/><use xlink:href="#k" transform="matrix(1,0,0,1,156,1061.3333333333335) translate(21.242513020833336 136.41579861111111)"/><path d="M-160 1066a6 6 0 0 1 6-6h60a6 6 0 0 1 6 6v163.33a6 6 0 0 1-6 6h-60a6 6 0 0 1-6-6z" fill="none"/><use xlink:href="#l" transform="matrix(1,0,0,1,-160,1060) translate(25.017469618055557 55.751736111111114)"/><use xlink:href="#b" transform="matrix(1,0,0,1,-160,1060) translate(36 82.63975694444446)"/><use xlink:href="#b" transform="matrix(1,0,0,1,-160,1060) translate(36 109.52777777777777)"/><use xlink:href="#m" transform="matrix(1,0,0,1,-160,1060) translate(24.736436631944446 136.41579861111111)"/><path d="M-580 806a6 6 0 0 1 6-6h60a6 6 0 0 1 6 6v163.33a6 6 0 0 1-6 6h-60a6 6 0 0 1-6-6z" fill="none"/><use xlink:href="#n" transform="matrix(1,0,0,1,-580,799.9999999999999) translate(26.48882378472222 55.751736111111114)"/><use xlink:href="#b" transform="matrix(1,0,0,1,-580,799.9999999999999) translate(36 82.63975694444446)"/><use xlink:href="#b" transform="matrix(1,0,0,1,-580,799.9999999999999) translate(36 109.52777777777777)"/><use xlink:href="#o" transform="matrix(1,0,0,1,-580,799.9999999999999) translate(24.90896267361111 136.41579861111111)"/><path d="M-580 1046a6 6 0 0 1 6-6h60a6 6 0 0 1 6 6v163.33a6 6 0 0 1-6 6h-60a6 6 0 0 1-6-6z" fill="none"/><use xlink:href="#p" transform="matrix(1,0,0,1,-580,1040) translate(24.84819878472222 55.751736111111114)"/><use xlink:href="#b" transform="matrix(1,0,0,1,-580,1040) translate(36 82.63975694444446)"/><use xlink:href="#b" transform="matrix(1,0,0,1,-580,1040) translate(36 109.52777777777777)"/><use xlink:href="#q" transform="matrix(1,0,0,1,-580,1040) translate(24.6279296875 136.41579861111111)"/><path d="M-507.5 856h32" stroke="#3a414a" fill="none"/><path d="M-507.5 856.48h-.5v-.96h.5z" stroke="#3a414a" stroke-width=".05" fill="#3a414a"/><path d="M-462 856l-13 7.5v-15z" stroke="#3a414a" fill="#3a414a"/><path d="M-507.5 934.67h32" stroke="#3a414a" fill="none"/><path d="M-507.5 935.14h-.5v-.95h.5z" stroke="#3a414a" stroke-width=".05" fill="#3a414a"/><path d="M-462 934.67l-13 7.5v-15z" stroke="#3a414a" fill="#3a414a"/><path d="M-506.83 1091.33h32M-506.82 1091.33h-.5" stroke="#3a414a" fill="none"/><path d="M-461.33 1091.33l-13 7.5v-15z" stroke="#3a414a" fill="#3a414a"/><path d="M-506.83 1170h32M-506.82 1170h-.5" stroke="#3a414a" fill="none"/><path d="M-461.33 1170l-13 7.5v-15z" stroke="#3a414a" fill="#3a414a"/><path d="M120.83 875h32M120.85 875h-.52" stroke="#3a414a" fill="none"/><path d="M166.33 875l-13 7.5v-15z" stroke="#3a414a" fill="#3a414a"/><path d="M120.83 953.67h32M120.85 953.67h-.52" stroke="#3a414a" fill="none"/><path d="M166.33 953.67l-13 7.5v-15z" stroke="#3a414a" fill="#3a414a"/><path d="M121.5 1110.33h32M121.5 1110.33h-.5" stroke="#3a414a" fill="none"/><path d="M167 1110.33l-13 7.5v-15z" stroke="#3a414a" fill="#3a414a"/><path d="M121.5 1189h32M121.5 1189h-.5" stroke="#3a414a" fill="none"/><path d="M167 1189l-13 7.5v-15z" stroke="#3a414a" fill="#3a414a"/><path d="M-318.5 949.33h32.5a6 6 0 0 1 6 6v140a6 6 0 0 0 6 6h18.5" stroke="#3a414a" fill="none"/><path d="M-318.5 949.8h-.5v-.94h.5z" stroke="#3a414a" stroke-width=".05" fill="#3a414a"/><path d="M-242 1101.33l-13 7.5v-15z" stroke="#3a414a" fill="#3a414a"/><path d="M-318.5 1110.67h22.5a6 6 0 0 0 6-6V974a6 6 0 0 1 6-6h28.5" stroke="#3a414a" fill="none"/><path d="M-318.5 1111.14h-.5v-.95h.5z" stroke="#3a414a" stroke-width=".05" fill="#3a414a"/><path d="M-242 968l-13 7.5v-15z" stroke="#3a414a" fill="#3a414a"/><path d="M-318.5 862.67h63" stroke="#3a414a" fill="none"/><path d="M-318.5 863.14h-.5v-.95h.5z" stroke="#3a414a" stroke-width=".05" fill="#3a414a"/><path d="M-242 862.67l-13 7.5v-15z" stroke="#3a414a" fill="#3a414a"/><path d="M-318.5 1201.33h63" stroke="#3a414a" fill="none"/><path d="M-318.5 1201.8h-.5v-.94h.5z" stroke="#3a414a" stroke-width=".05" fill="#3a414a"/><path d="M-242 1201.33l-13 7.5v-15z" stroke="#3a414a" fill="#3a414a"/><path d="M-98.5 953.33H-66a6 6 0 0 1 6 6v128a6 6 0 0 0 6 6h18.5" stroke="#3a414a" fill="none"/><path d="M-98.5 953.8h-.5v-.94h.5z" stroke="#3a414a" stroke-width=".05" fill="#3a414a"/><path d="M-22 1093.33l-13 7.5v-15z" stroke="#3a414a" fill="#3a414a"/><path d="M-98.5 1110.67H-76a6 6 0 0 0 6-6v-136a6 6 0 0 1 6-6h28.5" stroke="#3a414a" fill="none"/><path d="M-98.5 1111.14h-.5v-.95h.5z" stroke="#3a414a" stroke-width=".05" fill="#3a414a"/><path d="M-22 962.67l-13 7.5v-15z" stroke="#3a414a" fill="#3a414a"/><path d="M-98.5 865.33h63" stroke="#3a414a" fill="none"/><path d="M-98.5 865.8h-.5v-.94h.5z" stroke="#3a414a" stroke-width=".05" fill="#3a414a"/><path d="M-22 865.33l-13 7.5v-15z" stroke="#3a414a" fill="#3a414a"/><path d="M-87.5 1197.33h52" stroke="#3a414a" fill="none"/><path d="M-87.5 1197.8h-.5v-.94h.5z" stroke="#3a414a" stroke-width=".05" fill="#3a414a"/><path d="M-22 1197.33l-13 7.5v-15z" stroke="#3a414a" fill="#3a414a"/><path d="M-400 726a6 6 0 0 1 6-6h568a6 6 0 0 1 6 6v28a6 6 0 0 1-6 6h-568a6 6 0 0 1-6-6z" fill="none"/><g><use xlink:href="#r" transform="matrix(1,0,0,1,-400,720) translate(0 28.08376736111111)"/><use xlink:href="#s" transform="matrix(1,0,0,1,-400,720) translate(218.28884548611111 28.08376736111111)"/><use xlink:href="#t" transform="matrix(1,0,0,1,-400,720) translate(436.45616319444446 28.08376736111111)"/></g><path d="M-390 760.5v24" stroke="#3a414a" fill="none"/><path d="M-389.52 760.5h-.96v-.5h.96z" stroke="#3a414a" stroke-width=".05" fill="#3a414a"/><path d="M-390 798l-7.5-13h15z" stroke="#3a414a" fill="#3a414a"/><path d="M-170 760.5v24" stroke="#3a414a" fill="none"/><path d="M-169.53 760.5h-.94v-.5h.94z" stroke="#3a414a" stroke-width=".05" fill="#3a414a"/><path d="M-170 798l-7.5-13h15z" stroke="#3a414a" fill="#3a414a"/><path d="M50 760.5v24" stroke="#3a414a" fill="none"/><path d="M50.48 760.5h-.95v-.5h.95z" stroke="#3a414a" stroke-width=".05" fill="#3a414a"/><path d="M50 798l-7.5-13h15z" stroke="#3a414a" fill="#3a414a"/><path d="M-390 1001.5v23" stroke="#3a414a" fill="none"/><path d="M-389.52 1001.5h-.96v-.5h.96z" stroke="#3a414a" stroke-width=".05" fill="#3a414a"/><path d="M-390 1038l-7.5-13h15z" stroke="#3a414a" fill="#3a414a"/><path d="M-170 1001.5v23" stroke="#3a414a" fill="none"/><path d="M-169.53 1001.5h-.94v-.5h.94z" stroke="#3a414a" stroke-width=".05" fill="#3a414a"/><path d="M-170 1038l-7.5-13h15z" stroke="#3a414a" fill="#3a414a"/><path d="M50 1001.5v23" stroke="#3a414a" fill="none"/><path d="M50.48 1001.5h-.95v-.5h.95z" stroke="#3a414a" stroke-width=".05" fill="#3a414a"/><path d="M50 1038l-7.5-13h15z" stroke="#3a414a" fill="#3a414a"/><defs><path d="M677 24c-213 0-288-135-325-197h-20V0H158v-1490h180v551h14c37-59 106-193 324-193 279 0 474 222 474 576 0 356-194 580-473 580zm-27-161c209 0 317-186 317-421 0-232-105-413-317-413-206 0-314 166-314 413 0 249 111 421 314 421" id="u"/><path d="M653-1490V0H466v-1314h-10L96-1047v-204l324-239h233" id="v"/><g id="a"><use transform="matrix(0.010850694444444444,0,0,0.010850694444444444,0,0)" xlink:href="#u"/><use transform="matrix(0.00759548611111111,0,0,0.00759548611111111,13.606770833333332,3.7673611111111107)" xlink:href="#v"/></g><path d="M635 20c-292 0-500-160-510-396h192c11 142 145 229 315 229 187 0 323-105 323-260 0-161-125-274-346-274H488v-165h121c174 0 294-100 294-254 0-148-104-245-266-245-152 0-291 85-297 230H157c8-234 222-395 484-395 278 0 448 188 448 400 0 168-95 291-247 336v12c190 31 301 169 301 357 0 244-216 425-508 425" id="w"/><g id="c"><use transform="matrix(0.010850694444444444,0,0,0.010850694444444444,0,0)" xlink:href="#u"/><use transform="matrix(0.00759548611111111,0,0,0.00759548611111111,13.606770833333332,3.7673611111111107)" xlink:href="#w"/></g><path d="M154 0v-137l495-537c165-179 249-281 249-418 0-156-121-253-280-253-170 0-278 110-278 278H158c0-264 200-443 465-443 266 0 455 183 455 416 0 161-73 288-336 568L416-179v12h687V0H154" id="x"/><g id="d"><use transform="matrix(0.010850694444444444,0,0,0.010850694444444444,0,0)" xlink:href="#u"/><use transform="matrix(0.00759548611111111,0,0,0.00759548611111111,13.606770833333332,3.7673611111111107)" xlink:href="#x"/></g><path d="M120-303v-155l652-1032h231v1020h202v167h-202V0H821v-303H120zm702-167v-782h-12L323-482v12h499" id="y"/><g id="e"><use transform="matrix(0.010850694444444444,0,0,0.010850694444444444,0,0)" xlink:href="#u"/><use transform="matrix(0.00759548611111111,0,0,0.00759548611111111,13.606770833333332,3.7673611111111107)" xlink:href="#y"/></g><path d="M471 26C259 26 90-98 90-318c0-256 228-303 435-329 202-27 287-16 287-108 0-139-79-219-234-219-161 0-248 86-283 164l-173-57c86-203 278-265 451-265 150 0 419 46 419 395V0H815v-152h-12C765-73 660 26 471 26zm31-159c199 0 310-134 310-271v-155c-30 35-226 55-295 64-131 17-246 59-246 186 0 116 97 176 231 176" id="z"/><g id="f"><use transform="matrix(0.010850694444444444,0,0,0.010850694444444444,0,0)" xlink:href="#z"/><use transform="matrix(0.00759548611111111,0,0,0.00759548611111111,12.47829861111111,3.7673611111111107)" xlink:href="#v"/></g><g id="g"><use transform="matrix(0.010850694444444444,0,0,0.010850694444444444,0,0)" xlink:href="#z"/><use transform="matrix(0.00759548611111111,0,0,0.00759548611111111,12.47829861111111,3.7673611111111107)" xlink:href="#w"/></g><path d="M158 0v-1118h175l1 205c55-151 181-225 313-225 147 0 245 90 285 228 53-141 190-228 352-228 194 0 352 125 352 384V0h-181v-749c0-161-105-225-225-225-151 0-243 103-243 244V0H807v-767c0-124-93-207-219-207-131 0-250 92-250 270V0H158" id="A"/><g id="h"><use transform="matrix(0.010850694444444444,0,0,0.010850694444444444,0,0)" xlink:href="#A"/><use transform="matrix(0.00759548611111111,0,0,0.00759548611111111,19.466145833333332,3.7673611111111107)" xlink:href="#v"/></g><g id="i"><use transform="matrix(0.010850694444444444,0,0,0.010850694444444444,0,0)" xlink:href="#A"/><use transform="matrix(0.00759548611111111,0,0,0.00759548611111111,19.466145833333332,3.7673611111111107)" xlink:href="#x"/></g><g id="j"><use transform="matrix(0.010850694444444444,0,0,0.010850694444444444,0,0)" xlink:href="#A"/><use transform="matrix(0.00759548611111111,0,0,0.00759548611111111,19.466145833333332,3.7673611111111107)" xlink:href="#w"/></g><g id="k"><use transform="matrix(0.010850694444444444,0,0,0.010850694444444444,0,0)" xlink:href="#A"/><use transform="matrix(0.00759548611111111,0,0,0.00759548611111111,19.466145833333332,3.7673611111111107)" xlink:href="#y"/></g><g id="l"><use transform="matrix(0.010850694444444444,0,0,0.010850694444444444,0,0)" xlink:href="#z"/><use transform="matrix(0.00759548611111111,0,0,0.00759548611111111,12.47829861111111,3.7673611111111107)" xlink:href="#x"/></g><g id="m"><use transform="matrix(0.010850694444444444,0,0,0.010850694444444444,0,0)" xlink:href="#z"/><use transform="matrix(0.00759548611111111,0,0,0.00759548611111111,12.47829861111111,3.7673611111111107)" xlink:href="#y"/></g><path d="M613 24c-304 0-509-231-509-576 0-350 205-580 509-580 216 0 392 114 453 309l-173 49c-33-115-133-197-280-197-223 0-326 196-326 419 0 220 103 415 326 415 150 0 252-85 285-206l172 49C1010-95 832 24 613 24" id="B"/><g id="n"><use transform="matrix(0.010850694444444444,0,0,0.010850694444444444,0,0)" xlink:href="#B"/><use transform="matrix(0.00759548611111111,0,0,0.00759548611111111,12.6953125,3.7673611111111107)" xlink:href="#v"/></g><g id="o"><use transform="matrix(0.010850694444444444,0,0,0.010850694444444444,0,0)" xlink:href="#B"/><use transform="matrix(0.00759548611111111,0,0,0.00759548611111111,12.6953125,3.7673611111111107)" xlink:href="#x"/></g><g id="p"><use transform="matrix(0.010850694444444444,0,0,0.010850694444444444,0,0)" xlink:href="#B"/><use transform="matrix(0.00759548611111111,0,0,0.00759548611111111,12.6953125,3.7673611111111107)" xlink:href="#w"/></g><g id="q"><use transform="matrix(0.010850694444444444,0,0,0.010850694444444444,0,0)" xlink:href="#B"/><use transform="matrix(0.00759548611111111,0,0,0.00759548611111111,12.6953125,3.7673611111111107)" xlink:href="#y"/></g><path d="M180 0v-1490h190c0 262 1 526-3 784 217-279 467-523 702-784h249L716-845 1319 0h-225L585-716 370-489V0H180" id="C"/><g id="r"><use transform="matrix(0.010850694444444444,0,0,0.010850694444444444,0,0)" xlink:href="#C"/><use transform="matrix(0.00759548611111111,0,0,0.00759548611111111,14.930555555555555,3.7673611111111107)" xlink:href="#w"/></g><g id="s"><use transform="matrix(0.010850694444444444,0,0,0.010850694444444444,0,0)" xlink:href="#C"/><use transform="matrix(0.00759548611111111,0,0,0.00759548611111111,14.930555555555555,3.7673611111111107)" xlink:href="#x"/></g><g id="t"><use transform="matrix(0.010850694444444444,0,0,0.010850694444444444,0,0)" xlink:href="#C"/><use transform="matrix(0.00759548611111111,0,0,0.00759548611111111,14.930555555555555,3.7673611111111107)" xlink:href="#v"/></g></defs></g></svg>