<svg xmlns="http://www.w3.org/2000/svg" xmlns:xlink="http://www.w3.org/1999/xlink" xmlns:lucid="lucid" width="719" height="476"><g transform="translate(1380 240)" lucid:page-tab-id="0_0"><path d="M-1334.6-135.5V-207h109.2v71.5h-109.2zm34.32-99l10.2 10.23c.48.44 1.2.77 1.92.77h62.76v11h-109.2v-22h34.32zm80.28 8.25c0-1.54-1.2-2.75-2.76-2.75h-64.32l-10.08-10.23c-.48-.44-1.2-.77-1.92-.77h-38.16c-1.56 0-2.76 1.2-2.76 2.75v104.5c0 1.54 1.2 2.75 2.76 2.75h114.48c1.56 0 2.76-1.2 2.76-2.75v-93.5z" stroke="#000" stroke-opacity="0" fill="#232f3e"/><use xlink:href="#a" transform="matrix(1,0,0,1,-1370,-121) translate(73.40386284722223 21.52777777777778)"/><path d="M-1334.6 64.5V-7h109.2v71.5h-109.2zm34.32-99l10.2 10.23c.48.44 1.2.77 1.92.77h62.76v11h-109.2v-22h34.32zm80.28 8.25c0-1.54-1.2-2.75-2.76-2.75h-64.32l-10.08-10.23c-.48-.44-1.2-.77-1.92-.77h-38.16c-1.56 0-2.76 1.2-2.76 2.75v104.5c0 1.54 1.2 2.75 2.76 2.75h114.48c1.56 0 2.76-1.2 2.76-2.75v-93.5z" stroke="#000" stroke-opacity="0" fill="#232f3e"/><use xlink:href="#b" transform="matrix(1,0,0,1,-1370,79.00000000000001) translate(62.35405815972223 21.52777777777778)"/><path d="M-863.6 80.9h-51.58c-2.25 0-4.1 1.77-4.1 4v110.17c0 2.25 1.85 4.02 4.1 4.02h89.42c2.24 0 4-1.78 4-4.03v-72.92c0-2.25-1.76-4.02-4-4.02h-29.74c-2.25 0-4-1.78-4-4.02V84.9v-.1c0-2.13-1.86-3.9-4.1-3.9z" stroke="#000" stroke-opacity="0" fill="#fff"/><path d="M-865.45 86v27.72c0 5.64 4.55 10.08 10.2 10.2h28.1V194h-86.7V86h48.4m1.88-6h-52.27c-2.28 0-4.16 1.8-4.16 4.08v111.84c0 2.28 1.88 4.08 4.16 4.08h90.68c2.28 0 4.16-1.8 4.16-4.08v-74.04c0-2.28-1.88-4.08-4.16-4.08h-30.1c-2.27 0-4.15-1.8-4.15-4.08V84.08c0-2.28-1.8-4.08-4.17-4.08z" stroke="#000" stroke-opacity="0" fill="url(#c)"/><path d="M-822.58 118.57L-860.8 80.9v30.7c-.04 3.84 3.1 6.94 6.96 6.97z" stroke="#000" stroke-opacity="0" fill="#00192f"/><path d="M-900.12 134.6h59.24c2.7 0 4.04 1.34 4.04 4.02v.9c0 2.68-1.35 4.02-4.04 4.02h-59.24c-2.7 0-4.04-1.34-4.04-4.02v-.9c0-2.68 1.35-4.02 4.04-4.02zM-900.12 150.68h59.24c2.7 0 4.04 1.34 4.04 4.02v.9c0 2.68-1.35 4.02-4.04 4.02h-59.24c-2.7 0-4.04-1.34-4.04-4.02v-.9c0-2.68 1.35-4.02 4.04-4.02zM-900.08 166.64h34.3c2.73 0 4.1 1.34 4.1 4.02v.9c0 2.68-1.37 4.02-4.1 4.02h-34.3c-2.72 0-4.08-1.34-4.08-4.02v-.9c0-2.68 1.36-4.02 4.08-4.02z" stroke="#000" stroke-opacity="0" fill="#3a414a"/><use xlink:href="#d" transform="matrix(1,0,0,1,-950,209) translate(53.346028645833336 21.52777777777778)"/><path d="M-703.6 80.9h-51.58c-2.25 0-4.1 1.77-4.1 4v110.17c0 2.25 1.85 4.02 4.1 4.02h89.42c2.24 0 4-1.78 4-4.03v-72.92c0-2.25-1.76-4.02-4-4.02h-29.74c-2.25 0-4-1.78-4-4.02V84.9v-.1c0-2.13-1.86-3.9-4.1-3.9z" stroke="#000" stroke-opacity="0" fill="#fff"/><path d="M-705.45 86v27.72c0 5.64 4.55 10.08 10.2 10.2h28.1V194h-86.7V86h48.4m1.88-6h-52.27c-2.28 0-4.16 1.8-4.16 4.08v111.84c0 2.28 1.88 4.08 4.16 4.08h90.68c2.28 0 4.16-1.8 4.16-4.08v-74.04c0-2.28-1.88-4.08-4.16-4.08h-30.1c-2.27 0-4.15-1.8-4.15-4.08V84.08c0-2.28-1.8-4.08-4.17-4.08z" stroke="#000" stroke-opacity="0" fill="url(#e)"/><path d="M-662.58 118.57L-700.8 80.9v30.7c-.04 3.84 3.1 6.94 6.96 6.97z" stroke="#000" stroke-opacity="0" fill="#00192f"/><path d="M-740.12 134.6h59.24c2.7 0 4.04 1.34 4.04 4.02v.9c0 2.68-1.35 4.02-4.04 4.02h-59.24c-2.7 0-4.04-1.34-4.04-4.02v-.9c0-2.68 1.35-4.02 4.04-4.02zM-740.12 150.68h59.24c2.7 0 4.04 1.34 4.04 4.02v.9c0 2.68-1.35 4.02-4.04 4.02h-59.24c-2.7 0-4.04-1.34-4.04-4.02v-.9c0-2.68 1.35-4.02 4.04-4.02zM-740.08 166.64h34.3c2.73 0 4.1 1.34 4.1 4.02v.9c0 2.68-1.37 4.02-4.1 4.02h-34.3c-2.72 0-4.08-1.34-4.08-4.02v-.9c0-2.68 1.36-4.02 4.08-4.02z" stroke="#000" stroke-opacity="0" fill="#3a414a"/><use xlink:href="#f" transform="matrix(1,0,0,1,-790,209) translate(54.01063368055556 21.52777777777778)"/><path d="M-1340.5-185h-33.5a6 6 0 0 0-6 6V10a6 6 0 0 0 6 6h33.5" stroke="#3a414a" fill="none"/><path d="M-1340-184.53h-.5v-.94h.5zM-1340 16.48h-.5v-.96h.5z" stroke="#3a414a" stroke-width=".05" fill="#3a414a"/><path d="M-1219.5 15h163a6 6 0 0 1 6 6v58.5" stroke="#3a414a" fill="none"/><path d="M-1219.5 15.47h-.5v-.95h.5zM-1050.03 80h-.94v-.5h.94z" stroke="#3a414a" stroke-width=".05" fill="#3a414a"/><path d="M-870.5 79.5V21a6 6 0 0 0-6-6h-343" stroke="#3a414a" fill="none"/><path d="M-870.02 80h-.96v-.5h.96zM-1219.5 15.47h-.5v-.95h.5z" stroke="#3a414a" stroke-width=".05" fill="#3a414a"/><path d="M-1043.6-239.1h-51.58c-2.25 0-4.1 1.77-4.1 4v110.17c0 2.25 1.85 4.02 4.1 4.02h89.42c2.24 0 4-1.78 4-4.03v-72.92c0-2.25-1.76-4.02-4-4.02h-29.74c-2.25 0-4-1.78-4-4.02v-29.2-.1c0-2.13-1.86-3.9-4.1-3.9z" stroke="#000" stroke-opacity="0" fill="#fff"/><path d="M-1045.45-234v27.72c0 5.64 4.55 10.08 10.2 10.2h28.1V-126h-86.7v-108h48.4m1.88-6h-52.27c-2.28 0-4.16 1.8-4.16 4.08v111.84c0 2.28 1.88 4.08 4.16 4.08h90.68c2.28 0 4.16-1.8 4.16-4.08v-74.04c0-2.28-1.88-4.08-4.16-4.08h-30.1c-2.27 0-4.15-1.8-4.15-4.08v-29.64c0-2.28-1.8-4.08-4.17-4.08z" stroke="#000" stroke-opacity="0" fill="url(#g)"/><path d="M-1002.58-201.43l-38.22-37.68v30.7c-.04 3.84 3.1 6.94 6.96 6.97z" stroke="#000" stroke-opacity="0" fill="#00192f"/><path d="M-1080.12-185.4h59.24c2.7 0 4.04 1.34 4.04 4.02v.9c0 2.68-1.35 4.02-4.04 4.02h-59.24c-2.7 0-4.04-1.34-4.04-4.02v-.9c0-2.68 1.35-4.02 4.04-4.02zM-1080.12-169.32h59.24c2.7 0 4.04 1.34 4.04 4.02v.9c0 2.68-1.35 4.02-4.04 4.02h-59.24c-2.7 0-4.04-1.34-4.04-4.02v-.9c0-2.68 1.35-4.02 4.04-4.02zM-1080.08-153.36h34.3c2.73 0 4.1 1.34 4.1 4.02v.9c0 2.68-1.37 4.02-4.1 4.02h-34.3c-2.72 0-4.08-1.34-4.08-4.02v-.9c0-2.68 1.36-4.02 4.08-4.02z" stroke="#000" stroke-opacity="0" fill="#3a414a"/><use xlink:href="#h" transform="matrix(1,0,0,1,-1130,-111) translate(42.65158420138889 21.52777777777778)"/><path d="M-1100.5-180h-119" stroke="#3a414a" fill="none"/><path d="M-1100-179.53h-.5v-.94h.5zM-1219.5-179.53h-.5v-.94h.5z" stroke="#3a414a" stroke-width=".05" fill="#3a414a"/><path d="M-1043.6 80.9h-51.58c-2.25 0-4.1 1.77-4.1 4v110.17c0 2.25 1.85 4.02 4.1 4.02h89.42c2.24 0 4-1.78 4-4.03v-72.92c0-2.25-1.76-4.02-4-4.02h-29.74c-2.25 0-4-1.78-4-4.02V84.9v-.1c0-2.13-1.86-3.9-4.1-3.9z" stroke="#000" stroke-opacity="0" fill="#fff"/><path d="M-1045.45 86v27.72c0 5.64 4.55 10.08 10.2 10.2h28.1V194h-86.7V86h48.4m1.88-6h-52.27c-2.28 0-4.16 1.8-4.16 4.08v111.84c0 2.28 1.88 4.08 4.16 4.08h90.68c2.28 0 4.16-1.8 4.16-4.08v-74.04c0-2.28-1.88-4.08-4.16-4.08h-30.1c-2.27 0-4.15-1.8-4.15-4.08V84.08c0-2.28-1.8-4.08-4.17-4.08z" stroke="#000" stroke-opacity="0" fill="url(#i)"/><path d="M-1002.58 118.57l-38.22-37.68v30.7c-.04 3.84 3.1 6.94 6.96 6.97z" stroke="#000" stroke-opacity="0" fill="#00192f"/><path d="M-1080.12 134.6h59.24c2.7 0 4.04 1.34 4.04 4.02v.9c0 2.68-1.35 4.02-4.04 4.02h-59.24c-2.7 0-4.04-1.34-4.04-4.02v-.9c0-2.68 1.35-4.02 4.04-4.02zM-1080.12 150.68h59.24c2.7 0 4.04 1.34 4.04 4.02v.9c0 2.68-1.35 4.02-4.04 4.02h-59.24c-2.7 0-4.04-1.34-4.04-4.02v-.9c0-2.68 1.35-4.02 4.04-4.02zM-1080.08 166.64h34.3c2.73 0 4.1 1.34 4.1 4.02v.9c0 2.68-1.37 4.02-4.1 4.02h-34.3c-2.72 0-4.08-1.34-4.08-4.02v-.9c0-2.68 1.36-4.02 4.08-4.02z" stroke="#000" stroke-opacity="0" fill="#3a414a"/><use xlink:href="#j" transform="matrix(1,0,0,1,-1130,209) translate(61.66688368055556 21.52777777777778)"/><path d="M-710.5 79.5V21a6 6 0 0 0-6-6h-503" stroke="#3a414a" fill="none"/><path d="M-710.02 80h-.96v-.5h.96zM-1219.5 15.47h-.5v-.95h.5z" stroke="#3a414a" stroke-width=".05" fill="#3a414a"/><defs><path d="M180 0v-1490h270l367 940c28 72 75 218 110 339 35-117 81-264 110-339l362-940h271V0h-187c2-448-5-837 7-1287-157 497-311 829-483 1287H842C666-458 514-784 354-1284c12 438 5 843 7 1284H180" id="k"/><path d="M180 0v-1490h901v168H370v510h643v168H370V0H180" id="l"/><g id="a"><use transform="matrix(0.010850694444444444,0,0,0.010850694444444444,0,0)" xlink:href="#k"/><use transform="matrix(0.010850694444444444,0,0,0.010850694444444444,20.07378472222222,0)" xlink:href="#l"/></g><path d="M645 0H180v-1490h484c435 0 692 280 692 742 0 466-257 748-711 748zM370-168h263c363 0 539-218 539-580 0-358-176-574-521-574H370v1154" id="m"/><path d="M52 0l541-1490h220L1361 0h-200l-149-416H398L254 0H52zm404-582h497c-103-290-145-390-251-756-108 377-145 460-246 756" id="n"/><path d="M370-1490V0H180v-1490h190" id="o"/><g id="b"><use transform="matrix(0.010850694444444444,0,0,0.010850694444444444,0,0)" xlink:href="#m"/><use transform="matrix(0.010850694444444444,0,0,0.010850694444444444,16.03732638888889,0)" xlink:href="#l"/><use transform="matrix(0.00759548611111111,0,0,0.00759548611111111,29.15581597222222,3.7673611111111107)" xlink:href="#n"/><use transform="matrix(0.00759548611111111,0,0,0.00759548611111111,39.88823784722222,3.7673611111111107)" xlink:href="#o"/><use transform="matrix(0.00759548611111111,0,0,0.00759548611111111,44.06575520833333,3.7673611111111107)" xlink:href="#m"/></g><linearGradient gradientUnits="userSpaceOnUse" id="c" x1="-870.5" y1="200" x2="-870.5" y2="80"><stop offset="0%" stop-color="#00192f"/><stop offset="81.7%" stop-color="#3a414a"/></linearGradient><path d="M180 0v-1490h908v168H370v486h669v168H370v500h727V0H180" id="p"/><path d="M180 0v-1490h510c348 0 508 209 508 474 0 266-160 477-507 477H370V0H180zm190-706h312c236 0 327-133 327-310 0-176-91-307-329-307H370v617" id="q"/><path d="M180 0v-1490h224l606 953c40 63 108 177 176 312-27-437-7-821-13-1265h190V0h-226C860-448 622-778 356-1262c27 476 11 792 15 1262H180" id="r"/><g id="d"><use transform="matrix(0.010850694444444444,0,0,0.010850694444444444,0,0)" xlink:href="#p"/><use transform="matrix(0.010850694444444444,0,0,0.010850694444444444,13.35720486111111,0)" xlink:href="#l"/><use transform="matrix(0.00759548611111111,0,0,0.00759548611111111,26.475694444444443,3.7673611111111107)" xlink:href="#q"/><use transform="matrix(0.00759548611111111,0,0,0.00759548611111111,36.41059027777777,3.7673611111111107)" xlink:href="#o"/><use transform="matrix(0.00759548611111111,0,0,0.00759548611111111,40.588107638888886,3.7673611111111107)" xlink:href="#r"/></g><linearGradient gradientUnits="userSpaceOnUse" id="e" x1="-710.5" y1="200" x2="-710.5" y2="80"><stop offset="0%" stop-color="#00192f"/><stop offset="81.7%" stop-color="#3a414a"/></linearGradient><path d="M180 0v-1490h190c0 262 1 526-3 784 217-279 467-523 702-784h249L716-845 1319 0h-225L585-716 370-489V0H180" id="s"/><g id="f"><use transform="matrix(0.010850694444444444,0,0,0.010850694444444444,0,0)" xlink:href="#p"/><use transform="matrix(0.010850694444444444,0,0,0.010850694444444444,13.35720486111111,0)" xlink:href="#l"/><use transform="matrix(0.00759548611111111,0,0,0.00759548611111111,26.475694444444443,3.7673611111111107)" xlink:href="#k"/><use transform="matrix(0.00759548611111111,0,0,0.00759548611111111,40.52734375,3.7673611111111107)" xlink:href="#s"/></g><linearGradient gradientUnits="userSpaceOnUse" id="g" x1="-1050.5" y1="-120" x2="-1050.5" y2="-240"><stop offset="0%" stop-color="#00192f"/><stop offset="81.7%" stop-color="#3a414a"/></linearGradient><path d="M783 20c-382 0-661-292-661-764 0-473 279-766 661-766 302 0 548 182 601 489h-190c-42-204-217-313-411-313-268 0-476 208-476 590 0 381 209 588 476 588 195 0 369-110 411-313h190c-52 303-296 489-601 489" id="t"/><path d="M657 26c-323 0-524-166-541-416h195c15 169 171 246 346 246 202 0 356-106 356-265 5-203-294-238-475-293-239-73-380-191-380-389 0-252 224-419 512-419 294 0 499 171 508 396H992c-17-145-151-228-328-228-193 0-321 102-321 242 0 156 175 211 284 241l149 41c160 44 422 134 422 412 0 244-197 432-541 432" id="u"/><g id="h"><use transform="matrix(0.010850694444444444,0,0,0.010850694444444444,0,0)" xlink:href="#p"/><use transform="matrix(0.010850694444444444,0,0,0.010850694444444444,13.35720486111111,0)" xlink:href="#l"/><use transform="matrix(0.00759548611111111,0,0,0.00759548611111111,26.475694444444443,3.7673611111111107)" xlink:href="#o"/><use transform="matrix(0.00759548611111111,0,0,0.00759548611111111,30.653211805555554,3.7673611111111107)" xlink:href="#t"/><use transform="matrix(0.00759548611111111,0,0,0.00759548611111111,42.01605902777777,3.7673611111111107)" xlink:href="#u"/><use transform="matrix(0.00759548611111111,0,0,0.00759548611111111,51.99652777777777,3.7673611111111107)" xlink:href="#u"/><use transform="matrix(0.00759548611111111,0,0,0.00759548611111111,61.97699652777777,3.7673611111111107)" xlink:href="#r"/></g><linearGradient gradientUnits="userSpaceOnUse" id="i" x1="-1050.5" y1="200" x2="-1050.5" y2="80"><stop offset="0%" stop-color="#00192f"/><stop offset="81.7%" stop-color="#3a414a"/></linearGradient><path d="M338-670V0H158v-1118h173l1 207c72-158 192-221 342-221 226 0 378 139 378 422V0H872v-695c0-172-96-275-252-275-161 0-282 109-282 300" id="v"/><g id="j"><use transform="matrix(0.010850694444444444,0,0,0.010850694444444444,0,0)" xlink:href="#p"/><use transform="matrix(0.010850694444444444,0,0,0.010850694444444444,13.35720486111111,0)" xlink:href="#l"/><use transform="matrix(0.00759548611111111,0,0,0.00759548611111111,26.475694444444443,3.7673611111111107)" xlink:href="#v"/></g></defs></g></svg>