<svg xmlns="http://www.w3.org/2000/svg" xmlns:xlink="http://www.w3.org/1999/xlink" xmlns:lucid="lucid" width="559" height="777"><g transform="translate(1380 240)" lucid:page-tab-id="0_0"><path d="M-1334.6-135.5V-207h109.2v71.5h-109.2zm34.32-99l10.2 10.23c.48.44 1.2.77 1.92.77h62.76v11h-109.2v-22h34.32zm80.28 8.25c0-1.54-1.2-2.75-2.76-2.75h-64.32l-10.08-10.23c-.48-.44-1.2-.77-1.92-.77h-38.16c-1.56 0-2.76 1.2-2.76 2.75v104.5c0 1.54 1.2 2.75 2.76 2.75h114.48c1.56 0 2.76-1.2 2.76-2.75v-93.5z" stroke="#000" stroke-opacity="0" fill="#232f3e"/><use xlink:href="#a" transform="matrix(1,0,0,1,-1370,-121) translate(73.40386284722223 21.52777777777778)"/><path d="M-1083.6-39.1h-51.58c-2.25 0-4.1 1.77-4.1 4V75.08c0 2.25 1.85 4.02 4.1 4.02h89.42c2.24 0 4-1.78 4-4.03V2.15c0-2.25-1.76-4.02-4-4.02h-29.74c-2.25 0-4-1.78-4-4.02v-29.2-.1c0-2.13-1.86-3.9-4.1-3.9z" stroke="#000" stroke-opacity="0" fill="#fff"/><path d="M-1085.45-34v27.72c0 5.64 4.55 10.08 10.2 10.2h28.1V74h-86.7V-34h48.4m1.88-6h-52.27c-2.28 0-4.16 1.8-4.16 4.08V75.92c0 2.28 1.88 4.08 4.16 4.08h90.68c2.28 0 4.16-1.8 4.16-4.08V1.88c0-2.28-1.88-4.08-4.16-4.08h-30.1c-2.27 0-4.15-1.8-4.15-4.08v-29.64c0-2.28-1.8-4.08-4.17-4.08z" stroke="#000" stroke-opacity="0" fill="url(#b)"/><path d="M-1042.58-1.43l-38.22-37.68v30.7c-.04 3.85 3.1 6.94 6.96 6.97z" stroke="#000" stroke-opacity="0" fill="#00192f"/><path d="M-1120.12 14.6h59.24c2.7 0 4.04 1.34 4.04 4.02v.9c0 2.68-1.35 4.02-4.04 4.02h-59.24c-2.7 0-4.04-1.34-4.04-4.02v-.9c0-2.68 1.35-4.02 4.04-4.02zM-1120.12 30.68h59.24c2.7 0 4.04 1.34 4.04 4.02v.9c0 2.68-1.35 4.02-4.04 4.02h-59.24c-2.7 0-4.04-1.34-4.04-4.02v-.9c0-2.68 1.35-4.02 4.04-4.02zM-1120.08 46.64h34.3c2.73 0 4.1 1.34 4.1 4.02v.9c0 2.68-1.37 4.02-4.1 4.02h-34.3c-2.72 0-4.08-1.34-4.08-4.02v-.9c0-2.68 1.36-4.02 4.08-4.02z" stroke="#000" stroke-opacity="0" fill="#3a414a"/><use xlink:href="#c" transform="matrix(1,0,0,1,-1170,89) translate(63.0986328125 21.52777777777778)"/><path d="M-1334.6 64.5V-7h109.2v71.5h-109.2zm34.32-99l10.2 10.23c.48.44 1.2.77 1.92.77h62.76v11h-109.2v-22h34.32zm80.28 8.25c0-1.54-1.2-2.75-2.76-2.75h-64.32l-10.08-10.23c-.48-.44-1.2-.77-1.92-.77h-38.16c-1.56 0-2.76 1.2-2.76 2.75v104.5c0 1.54 1.2 2.75 2.76 2.75h114.48c1.56 0 2.76-1.2 2.76-2.75v-93.5z" stroke="#000" stroke-opacity="0" fill="#232f3e"/><use xlink:href="#d" transform="matrix(1,0,0,1,-1370,79.00000000000001) translate(72.25857204861111 21.52777777777778)"/><path d="M-1083.6 180.9h-51.58c-2.25 0-4.1 1.77-4.1 4v110.17c0 2.25 1.85 4.02 4.1 4.02h89.42c2.24 0 4-1.78 4-4.03v-72.92c0-2.25-1.76-4.02-4-4.02h-29.74c-2.25 0-4-1.78-4-4.02v-29.2-.1c0-2.13-1.86-3.9-4.1-3.9z" stroke="#000" stroke-opacity="0" fill="#fff"/><path d="M-1085.45 186v27.72c0 5.64 4.55 10.08 10.2 10.2h28.1V294h-86.7V186h48.4m1.88-6h-52.27c-2.28 0-4.16 1.8-4.16 4.08v111.84c0 2.28 1.88 4.08 4.16 4.08h90.68c2.28 0 4.16-1.8 4.16-4.08v-74.04c0-2.28-1.88-4.08-4.16-4.08h-30.1c-2.27 0-4.15-1.8-4.15-4.08v-29.64c0-2.28-1.8-4.08-4.17-4.08z" stroke="#000" stroke-opacity="0" fill="url(#e)"/><path d="M-1042.58 218.57l-38.22-37.68v30.7c-.04 3.84 3.1 6.94 6.96 6.97z" stroke="#000" stroke-opacity="0" fill="#00192f"/><path d="M-1120.12 234.6h59.24c2.7 0 4.04 1.34 4.04 4.02v.9c0 2.68-1.35 4.02-4.04 4.02h-59.24c-2.7 0-4.04-1.34-4.04-4.02v-.9c0-2.68 1.35-4.02 4.04-4.02zM-1120.12 250.68h59.24c2.7 0 4.04 1.34 4.04 4.02v.9c0 2.68-1.35 4.02-4.04 4.02h-59.24c-2.7 0-4.04-1.34-4.04-4.02v-.9c0-2.68 1.35-4.02 4.04-4.02zM-1120.08 266.64h34.3c2.73 0 4.1 1.34 4.1 4.02v.9c0 2.68-1.37 4.02-4.1 4.02h-34.3c-2.72 0-4.08-1.34-4.08-4.02v-.9c0-2.68 1.36-4.02 4.08-4.02z" stroke="#000" stroke-opacity="0" fill="#3a414a"/><use xlink:href="#f" transform="matrix(1,0,0,1,-1170,309) translate(61.518771701388886 21.52777777777778)"/><path d="M-1083.6 380.9h-51.58c-2.25 0-4.1 1.77-4.1 4v110.17c0 2.25 1.85 4.02 4.1 4.02h89.42c2.24 0 4-1.78 4-4.03v-72.93c0-2.24-1.76-4-4-4h-29.74c-2.25 0-4-1.8-4-4.03v-29.2-.1c0-2.13-1.86-3.9-4.1-3.9z" stroke="#000" stroke-opacity="0" fill="#fff"/><path d="M-1085.45 386v27.72c0 5.64 4.55 10.08 10.2 10.2h28.1V494h-86.7V386h48.4m1.88-6h-52.27c-2.28 0-4.16 1.8-4.16 4.08v111.84c0 2.28 1.88 4.08 4.16 4.08h90.68c2.28 0 4.16-1.8 4.16-4.08v-74.04c0-2.28-1.88-4.08-4.16-4.08h-30.1c-2.27 0-4.15-1.8-4.15-4.08v-29.64c0-2.28-1.8-4.08-4.17-4.08z" stroke="#000" stroke-opacity="0" fill="url(#g)"/><path d="M-1042.58 418.57l-38.22-37.68v30.7c-.04 3.84 3.1 6.94 6.96 6.97z" stroke="#000" stroke-opacity="0" fill="#00192f"/><path d="M-1120.12 434.6h59.24c2.7 0 4.04 1.34 4.04 4.02v.9c0 2.68-1.35 4.02-4.04 4.02h-59.24c-2.7 0-4.04-1.34-4.04-4.02v-.9c0-2.68 1.35-4.02 4.04-4.02zM-1120.12 450.68h59.24c2.7 0 4.04 1.34 4.04 4.02v.9c0 2.68-1.35 4.02-4.04 4.02h-59.24c-2.7 0-4.04-1.34-4.04-4.02v-.9c0-2.68 1.35-4.02 4.04-4.02zM-1120.08 466.64h34.3c2.73 0 4.1 1.34 4.1 4.02v.9c0 2.68-1.37 4.02-4.1 4.02h-34.3c-2.72 0-4.08-1.34-4.08-4.02v-.9c0-2.68 1.36-4.02 4.08-4.02z" stroke="#000" stroke-opacity="0" fill="#3a414a"/><use xlink:href="#h" transform="matrix(1,0,0,1,-1170,509) translate(61.4580078125 21.52777777777778)"/><path d="M-1340.5-185h-33.5a6 6 0 0 0-6 6V10a6 6 0 0 0 6 6h33.5" stroke="#3a414a" fill="none"/><path d="M-1340-184.53h-.5v-.94h.5zM-1340 16.48h-.5v-.96h.5z" stroke="#3a414a" stroke-width=".05" fill="#3a414a"/><path d="M-1219.5 15h79" stroke="#3a414a" fill="none"/><path d="M-1219.5 15.47h-.5v-.95h.5zM-1140 15.47h-.5v-.95h.5z" stroke="#3a414a" stroke-width=".05" fill="#3a414a"/><path d="M-863.6 180.9h-51.58c-2.25 0-4.1 1.77-4.1 4v110.17c0 2.25 1.85 4.02 4.1 4.02h89.42c2.24 0 4-1.78 4-4.03v-72.92c0-2.25-1.76-4.02-4-4.02h-29.74c-2.25 0-4-1.78-4-4.02v-29.2-.1c0-2.13-1.86-3.9-4.1-3.9z" stroke="#000" stroke-opacity="0" fill="#fff"/><path d="M-865.45 186v27.72c0 5.64 4.55 10.08 10.2 10.2h28.1V294h-86.7V186h48.4m1.88-6h-52.27c-2.28 0-4.16 1.8-4.16 4.08v111.84c0 2.28 1.88 4.08 4.16 4.08h90.68c2.28 0 4.16-1.8 4.16-4.08v-74.04c0-2.28-1.88-4.08-4.16-4.08h-30.1c-2.27 0-4.15-1.8-4.15-4.08v-29.64c0-2.28-1.8-4.08-4.17-4.08z" stroke="#000" stroke-opacity="0" fill="url(#i)"/><path d="M-822.58 218.57l-38.22-37.68v30.7c-.04 3.84 3.1 6.94 6.96 6.97z" stroke="#000" stroke-opacity="0" fill="#81bbcd"/><path d="M-900.12 234.6h59.24c2.7 0 4.04 1.34 4.04 4.02v.9c0 2.68-1.35 4.02-4.04 4.02h-59.24c-2.7 0-4.04-1.34-4.04-4.02v-.9c0-2.68 1.35-4.02 4.04-4.02zM-900.12 250.68h59.24c2.7 0 4.04 1.34 4.04 4.02v.9c0 2.68-1.35 4.02-4.04 4.02h-59.24c-2.7 0-4.04-1.34-4.04-4.02v-.9c0-2.68 1.35-4.02 4.04-4.02zM-900.08 266.64h34.3c2.73 0 4.1 1.34 4.1 4.02v.9c0 2.68-1.37 4.02-4.1 4.02h-34.3c-2.72 0-4.08-1.34-4.08-4.02v-.9c0-2.68 1.36-4.02 4.08-4.02z" stroke="#000" stroke-opacity="0" fill="#dfe3e8"/><use xlink:href="#j" transform="matrix(1,0,0,1,-950,309) translate(36.35058593750001 21.52777777777778)"/><path d="M-863.6 380.9h-51.58c-2.25 0-4.1 1.77-4.1 4v110.17c0 2.25 1.85 4.02 4.1 4.02h89.42c2.24 0 4-1.78 4-4.03v-72.93c0-2.24-1.76-4-4-4h-29.74c-2.25 0-4-1.8-4-4.03v-29.2-.1c0-2.13-1.86-3.9-4.1-3.9z" stroke="#000" stroke-opacity="0" fill="#fff"/><path d="M-865.45 386v27.72c0 5.64 4.55 10.08 10.2 10.2h28.1V494h-86.7V386h48.4m1.88-6h-52.27c-2.28 0-4.16 1.8-4.16 4.08v111.84c0 2.28 1.88 4.08 4.16 4.08h90.68c2.28 0 4.16-1.8 4.16-4.08v-74.04c0-2.28-1.88-4.08-4.16-4.08h-30.1c-2.27 0-4.15-1.8-4.15-4.08v-29.64c0-2.28-1.8-4.08-4.17-4.08z" stroke="#000" stroke-opacity="0" fill="url(#k)"/><path d="M-822.58 418.57l-38.22-37.68v30.7c-.04 3.84 3.1 6.94 6.96 6.97z" stroke="#000" stroke-opacity="0" fill="#81bbcd"/><path d="M-900.12 434.6h59.24c2.7 0 4.04 1.34 4.04 4.02v.9c0 2.68-1.35 4.02-4.04 4.02h-59.24c-2.7 0-4.04-1.34-4.04-4.02v-.9c0-2.68 1.35-4.02 4.04-4.02zM-900.12 450.68h59.24c2.7 0 4.04 1.34 4.04 4.02v.9c0 2.68-1.35 4.02-4.04 4.02h-59.24c-2.7 0-4.04-1.34-4.04-4.02v-.9c0-2.68 1.35-4.02 4.04-4.02zM-900.08 466.64h34.3c2.73 0 4.1 1.34 4.1 4.02v.9c0 2.68-1.37 4.02-4.1 4.02h-34.3c-2.72 0-4.08-1.34-4.08-4.02v-.9c0-2.68 1.36-4.02 4.08-4.02z" stroke="#000" stroke-opacity="0" fill="#dfe3e8"/><use xlink:href="#l" transform="matrix(1,0,0,1,-950,509) translate(36.289822048611114 21.52777777777778)"/><path d="M-920.5 240h-10m-10 0h-20m-10 0h-20m-10 0h-20m-10 0h-10" stroke="#979ea8" fill="none"/><path d="M-920 240.47h-.5v-.94h.5zM-1040.5 240.47h-.5v-.94h.5z" stroke="#979ea8" stroke-width=".05" fill="#979ea8"/><path d="M-920.5 440h-10m-10 0h-20m-10 0h-20m-10 0h-20m-10 0h-10" stroke="#979ea8" fill="none"/><path d="M-920 440.48h-.5v-.96h.5zM-1040.5 440.48h-.5v-.96h.5z" stroke="#979ea8" stroke-width=".05" fill="#979ea8"/><path d="M-1140.5 440h-33.5a6 6 0 0 1-6-6V21a6 6 0 0 0-6-6h-33.5" stroke="#3a414a" fill="none"/><path d="M-1140 440.48h-.5v-.96h.5zM-1219.5 15.47h-.5v-.95h.5z" stroke="#3a414a" stroke-width=".05" fill="#3a414a"/><path d="M-1140.5 240h-33.5a6 6 0 0 1-6-6V21a6 6 0 0 0-6-6h-33.5" stroke="#3a414a" fill="none"/><path d="M-1140 240.47h-.5v-.94h.5zM-1219.5 15.47h-.5v-.95h.5z" stroke="#3a414a" stroke-width=".05" fill="#3a414a"/><defs><path d="M180 0v-1490h270l367 940c28 72 75 218 110 339 35-117 81-264 110-339l362-940h271V0h-187c2-448-5-837 7-1287-157 497-311 829-483 1287H842C666-458 514-784 354-1284c12 438 5 843 7 1284H180" id="m"/><path d="M180 0v-1490h901v168H370v510h643v168H370V0H180" id="n"/><g id="a"><use transform="matrix(0.010850694444444444,0,0,0.010850694444444444,0,0)" xlink:href="#m"/><use transform="matrix(0.010850694444444444,0,0,0.010850694444444444,20.07378472222222,0)" xlink:href="#n"/></g><linearGradient gradientUnits="userSpaceOnUse" id="b" x1="-1090.5" y1="80" x2="-1090.5" y2="-40"><stop offset="0%" stop-color="#00192f"/><stop offset="81.7%" stop-color="#3a414a"/></linearGradient><path d="M180 0v-1490h908v168H370v486h669v168H370v500h727V0H180" id="o"/><path d="M653-1490V0H466v-1314h-10L96-1047v-204l324-239h233" id="p"/><g id="c"><use transform="matrix(0.010850694444444444,0,0,0.010850694444444444,0,0)" xlink:href="#o"/><use transform="matrix(0.010850694444444444,0,0,0.010850694444444444,13.35720486111111,0)" xlink:href="#n"/><use transform="matrix(0.00759548611111111,0,0,0.00759548611111111,26.475694444444443,3.7673611111111107)" xlink:href="#p"/></g><path d="M645 0H180v-1490h484c435 0 692 280 692 742 0 466-257 748-711 748zM370-168h263c363 0 539-218 539-580 0-358-176-574-521-574H370v1154" id="q"/><g id="d"><use transform="matrix(0.010850694444444444,0,0,0.010850694444444444,0,0)" xlink:href="#q"/><use transform="matrix(0.010850694444444444,0,0,0.010850694444444444,16.03732638888889,0)" xlink:href="#n"/><use transform="matrix(0.00759548611111111,0,0,0.00759548611111111,29.15581597222222,3.7673611111111107)" xlink:href="#p"/></g><linearGradient gradientUnits="userSpaceOnUse" id="e" x1="-1090.5" y1="300" x2="-1090.5" y2="180"><stop offset="0%" stop-color="#00192f"/><stop offset="81.7%" stop-color="#3a414a"/></linearGradient><path d="M154 0v-137l495-537c165-179 249-281 249-418 0-156-121-253-280-253-170 0-278 110-278 278H158c0-264 200-443 465-443 266 0 455 183 455 416 0 161-73 288-336 568L416-179v12h687V0H154" id="r"/><g id="f"><use transform="matrix(0.010850694444444444,0,0,0.010850694444444444,0,0)" xlink:href="#o"/><use transform="matrix(0.010850694444444444,0,0,0.010850694444444444,13.35720486111111,0)" xlink:href="#n"/><use transform="matrix(0.00759548611111111,0,0,0.00759548611111111,26.475694444444443,3.7673611111111107)" xlink:href="#r"/></g><linearGradient gradientUnits="userSpaceOnUse" id="g" x1="-1090.5" y1="500" x2="-1090.5" y2="380"><stop offset="0%" stop-color="#00192f"/><stop offset="81.7%" stop-color="#3a414a"/></linearGradient><path d="M635 20c-292 0-500-160-510-396h192c11 142 145 229 315 229 187 0 323-105 323-260 0-161-125-274-346-274H488v-165h121c174 0 294-100 294-254 0-148-104-245-266-245-152 0-291 85-297 230H157c8-234 222-395 484-395 278 0 448 188 448 400 0 168-95 291-247 336v12c190 31 301 169 301 357 0 244-216 425-508 425" id="s"/><g id="h"><use transform="matrix(0.010850694444444444,0,0,0.010850694444444444,0,0)" xlink:href="#o"/><use transform="matrix(0.010850694444444444,0,0,0.010850694444444444,13.35720486111111,0)" xlink:href="#n"/><use transform="matrix(0.00759548611111111,0,0,0.00759548611111111,26.475694444444443,3.7673611111111107)" xlink:href="#s"/></g><linearGradient gradientUnits="userSpaceOnUse" id="i" x1="-870.5" y1="300" x2="-870.5" y2="180"><stop offset="0%" stop-color="#81bbcd"/><stop offset="81.7%" stop-color="#dfe3e8"/></linearGradient><path d="M295 13c-75 0-135-60-135-135s60-135 135-135 135 60 135 135S370 13 295 13" id="t"/><path d="M52 0l541-1490h220L1361 0h-200l-149-416H398L254 0H52zm404-582h497c-103-290-145-390-251-756-108 377-145 460-246 756" id="u"/><path d="M180 0v-1490h510c348 0 508 194 508 460 0 198-88 351-276 417L1256 0h-220L726-579c-117 2-238 0-356 1V0H180zm190-747h312c235 0 327-108 327-283 0-177-92-293-329-293H370v576" id="v"/><g id="j"><use transform="matrix(0.010850694444444444,0,0,0.010850694444444444,0,0)" xlink:href="#o"/><use transform="matrix(0.010850694444444444,0,0,0.010850694444444444,13.35720486111111,0)" xlink:href="#n"/><use transform="matrix(0.00759548611111111,0,0,0.00759548611111111,26.475694444444443,3.7673611111111107)" xlink:href="#r"/><use transform="matrix(0.010850694444444444,0,0,0.010850694444444444,35.96245659722222,0)" xlink:href="#t"/><use transform="matrix(0.010850694444444444,0,0,0.010850694444444444,42.36436631944444,0)" xlink:href="#u"/><use transform="matrix(0.010850694444444444,0,0,0.010850694444444444,57.69639756944444,0)" xlink:href="#v"/><use transform="matrix(0.010850694444444444,0,0,0.010850694444444444,71.99761284722221,0)" xlink:href="#v"/></g><linearGradient gradientUnits="userSpaceOnUse" id="k" x1="-870.5" y1="500" x2="-870.5" y2="380"><stop offset="0%" stop-color="#81bbcd"/><stop offset="81.7%" stop-color="#dfe3e8"/></linearGradient><g id="l"><use transform="matrix(0.010850694444444444,0,0,0.010850694444444444,0,0)" xlink:href="#o"/><use transform="matrix(0.010850694444444444,0,0,0.010850694444444444,13.35720486111111,0)" xlink:href="#n"/><use transform="matrix(0.00759548611111111,0,0,0.00759548611111111,26.475694444444443,3.7673611111111107)" xlink:href="#s"/><use transform="matrix(0.010850694444444444,0,0,0.010850694444444444,36.083984375,0)" xlink:href="#t"/><use transform="matrix(0.010850694444444444,0,0,0.010850694444444444,42.48589409722222,0)" xlink:href="#u"/><use transform="matrix(0.010850694444444444,0,0,0.010850694444444444,57.81792534722222,0)" xlink:href="#v"/><use transform="matrix(0.010850694444444444,0,0,0.010850694444444444,72.119140625,0)" xlink:href="#v"/></g></defs></g></svg>