<svg xmlns="http://www.w3.org/2000/svg" xmlns:xlink="http://www.w3.org/1999/xlink" xmlns:lucid="lucid" width="882" height="802"><g transform="translate(581.0000000106768 201.00000002654755)" lucid:page-tab-id="0_0"><path d="M-580 226a6 6 0 0 1 6-6h868a6 6 0 0 1 6 6v368a6 6 0 0 1-6 6h-868a6 6 0 0 1-6-6z" stroke="#3a414a" stroke-width="2" fill="#fff"/><use xlink:href="#a" transform="matrix(1,0,0,1,-575,225) translate(0 368.71920177777787)"/><path d="M-533.33 299.34a6 6 0 0 1 6-6h490.3a6 6 0 0 1 6 6v190.92a6 6 0 0 1-6 6h-490.3a6 6 0 0 1-6-6z" stroke="#3a414a" stroke-width="2" fill="#f2f3f5"/><use xlink:href="#b" transform="matrix(1,0,0,1,-521.3297899580374,305.340420083925) translate(0 177.61577777777777)"/><path d="M-240-194a6 6 0 0 1 6-6h148a6 6 0 0 1 6 6v128a6 6 0 0 1-6 6h-148a6 6 0 0 1-6-6z" stroke="#3a414a" stroke-width="2" fill="#fff"/><use xlink:href="#c" transform="matrix(1,0,0,1,-235,-195) translate(9.689670138888886 74.34027777777777)"/><path d="M-406.68 363.05a6 6 0 0 1 6-6h148a6 6 0 0 1 6 6v108a6 6 0 0 1-6 6h-148a6 6 0 0 1-6-6z" stroke="#3a414a" stroke-width="2" fill="#fff"/><use xlink:href="#d" transform="matrix(1,0,0,1,-394.6808401678501,369.04609232945984) translate(10.947048611111093 57.52777777777778)"/><path d="M40 426a6 6 0 0 1 6-6h208a6 6 0 0 1 6 6v108a6 6 0 0 1-6 6H46a6 6 0 0 1-6-6z" stroke="#3a414a" stroke-width="2" fill="#fff"/><use xlink:href="#e" transform="matrix(1,0,0,1,52,432) translate(7.971788194444471 57.52777777777778)"/><path d="M-326.68 478.55v33.3" stroke="#3a414a" fill="none"/><path d="M-326.2 478.56h-.96v-.5h.95zM-326.2 512.34h-.96v-.5h.95z" stroke="#3a414a" stroke-width=".05" fill="#3a414a"/><path d="M-160-57.5V.45" stroke="#3a414a" stroke-width="3" fill="none"/><path d="M-158.53-57.46h-2.94V-59h2.94zM-158.53 1.75l-2.94.4V.4h2.94z" stroke="#3a414a" stroke-width=".05" fill="#3a414a"/><path d="M-158.53 139.94v97.56" stroke="#3a414a" stroke-width="3" fill="none"/><path d="M-157.06 138.65v1.33H-160v-1.75zM-157.06 239H-160v-1.54h2.94z" stroke="#3a414a" stroke-width=".05" fill="#3a414a"/><path d="M-317 98c-34.8 0-63-12.54-63-28 0-12.37 17.06-22.8 43.53-26.63C-338 7-233 0-191 14-170-7-65 0-65 21c63-7 126 21 84 56 42 28 0 63-84 49-21 18.2-105 18.2-126 0-42 14-126 7-126-28z" stroke="#3a414a" stroke-width="2" fill="#fff"/><path d="M-361.8 38.76a6 6 0 0 1 6-6h388a6 6 0 0 1 6 6v68a6 6 0 0 1-6 6h-388a6 6 0 0 1-6-6z" fill="none"/><use xlink:href="#f" transform="matrix(1,0,0,1,-361.81025290096363,32.75898839614581) translate(105.31684027777777 48.083767361111114)"/><use xlink:href="#g" transform="matrix(1,0,0,1,-361.81025290096363,32.75898839614581) translate(185.80729166666666 48.083767361111114)"/><path d="M-300 246a6 6 0 0 1 6-6h248a6 6 0 0 1 6 6v28a6 6 0 0 1-6 6h-248a6 6 0 0 1-6-6z" stroke="#3a414a" stroke-width="2" fill="#fff"/><use xlink:href="#h" transform="matrix(1,0,0,1,-288,252) translate(65.12999131944444 21.52777777777778)"/><path d="M-448.9 519.34a6 6 0 0 1 6-6h248a6 6 0 0 1 6 6v28a6 6 0 0 1-6 6h-248a6 6 0 0 1-6-6z" stroke="#3a414a" stroke-width="2" fill="#fff"/><use xlink:href="#h" transform="matrix(1,0,0,1,-436.89361338928336,525.3404200839251) translate(65.12999131944444 21.52777777777778)"/><path d="M-301.5 260h-16.8a6 6 0 0 0-6 6v32.5" stroke="#3a414a" fill="none"/><path d="M-301 260.48h-.5v-.96h.5zM-323.82 299h-.95v-.5h.95z" stroke="#3a414a" stroke-width=".05" fill="#3a414a"/><path d="M-45.88 533.3h36.2a6 6 0 0 0 6-6V486a6 6 0 0 1 6-6H38.5" stroke="#3a414a" fill="none"/><path d="M-45.87 533.78h-.5v-.95h.5zM39 480.48h-.5v-.96h.5z" stroke="#3a414a" stroke-width=".05" fill="#3a414a"/><path d="M-400 306a6 6 0 0 1 6-6h139.4a6 6 0 0 1 6 6v28a6 6 0 0 1-6 6H-394a6 6 0 0 1-6-6z" stroke="#3a414a" stroke-width="2" fill="#fff"/><use xlink:href="#i" transform="matrix(1,0,0,1,-388,312) translate(34.182291666666664 21.52777777777778)"/><path d="M-324.3 341.5v14.05" stroke="#3a414a" fill="none"/><path d="M-323.82 341.5h-.95v-.5h.95zM-323.82 356.05h-.95v-.52h.95z" stroke="#3a414a" stroke-width=".05" fill="#3a414a"/><path d="M-168.48 519.3a6 6 0 0 1 6-6h109.1a6 6 0 0 1 6 6v28a6 6 0 0 1-6 6h-109.1a6 6 0 0 1-6-6z" stroke="#3a414a" stroke-width="2" fill="#fff"/><use xlink:href="#i" transform="matrix(1,0,0,1,-156.4787540656621,525.3054375709781) translate(19.182291666666664 21.52777777777778)"/><path d="M-169.98 533.3h-8.7a.02.02 0 0 0 0 .02.02.02 0 0 1-.02.02h-8.7" stroke="#3a414a" fill="none"/><path d="M-169.48 533.78h-.5v-.95h.5zM-187.38 533.82h-.5v-.96h.5z" stroke="#3a414a" stroke-width=".05" fill="#3a414a"/><defs><path d="M23 0l30-183 923-1054H225l42-253h1134l-31 184L448-253h750L1156 0H23" id="j"/><path d="M552 24C254 24 71-146 71-432c0-377 264-705 643-705 236 0 413 123 413 326 0 251-270 329-766 342-10 155 35 265 213 267 113 0 207-50 245-134l269 36C1015-105 814 24 552 24zM392-650c368-7 456-43 456-146 0-71-63-115-165-115-165 0-251 126-291 261" id="k"/><path d="M441-638L335 0H35l186-1118h282l-30 213c87-148 206-227 368-227 241 0 374 169 330 431L1055 0H754l112-669c23-140-43-212-161-212-135 0-240 96-264 243" id="l"/><path d="M776-1118l-37 229H530l-93 562c-12 72 14 104 85 104 23 0 74-7 97-13l5 225C555 8 488 16 426 16 201 16 99-97 132-301l98-588H76l37-229h155l44-266h300l-44 266h208" id="m"/><path d="M36 0l185-1118h290l-31 195h12c83-166 210-238 399-200l-45 268c-197-55-375 37-405 219L336 0H36" id="n"/><path d="M441 19C184 19 19-186 81-558c63-382 303-574 550-574 189 0 259 113 285 202h10l31-188h299L1071 0H776l29-179h-14C733-87 623 19 441 19zm133-241c154 0 263-135 296-336 34-204-31-334-185-334-159 0-264 139-296 334-33 197 29 336 185 336" id="o"/><path d="M582-1490L335 0H35l247-1490h300" id="p"/><g id="a"><use transform="matrix(0.010850694444444444,0,0,0.010850694444444444,0,0)" xlink:href="#j"/><use transform="matrix(0.010850694444444444,0,0,0.010850694444444444,14.778645833333332,0)" xlink:href="#k"/><use transform="matrix(0.010850694444444444,0,0,0.010850694444444444,27.88628472222222,0)" xlink:href="#l"/><use transform="matrix(0.010850694444444444,0,0,0.010850694444444444,41.720920138888886,0)" xlink:href="#m"/><use transform="matrix(0.010850694444444444,0,0,0.010850694444444444,49.88064236111111,0)" xlink:href="#n"/><use transform="matrix(0.010850694444444444,0,0,0.010850694444444444,58.3984375,0)" xlink:href="#o"/><use transform="matrix(0.010850694444444444,0,0,0.010850694444444444,72.41753472222223,0)" xlink:href="#p"/><use transform="matrix(0.010850694444444444,0,0,0.010850694444444444,78.4396701388889,0)" xlink:href="#k"/></g><path d="M607 0H42l247-1490h509c449 0 695 280 618 745C1338-278 1058 0 607 0zM391-263h204c288 0 462-150 517-483s-67-481-351-481H551" id="q"/><path d="M42 0l247-1490h468l128 684c15 95 28 294 36 455 61-162 140-361 185-455l352-684h470L1681 0h-307c74-443 123-771 215-1228C1383-726 1213-441 990 0H733c-79-434-155-711-198-1214C473-747 415-431 345 0H42" id="r"/><g id="b"><use transform="matrix(0.010850694444444444,0,0,0.010850694444444444,0,0)" xlink:href="#q"/><use transform="matrix(0.010850694444444444,0,0,0.010850694444444444,16.03732638888889,0)" xlink:href="#r"/><use transform="matrix(0.010850694444444444,0,0,0.010850694444444444,36.740451388888886,0)" xlink:href="#j"/></g><path d="M-44 0l756-1490h400L1387 0h-327l-57-346H473L305 0H-44zm634-585h373c-37-212-56-397-81-666-107 262-185 453-292 666" id="s"/><path d="M419 14C188 14 60-144 103-407l118-711h300L412-459c-23 138 39 222 166 222 125 0 231-84 255-234l107-647h301L1056 0H772l35-232C717-74 589 14 419 14" id="t"/><path d="M42 0l182-1097c42-255 267-413 575-413 286 0 502 138 459 402-26 155-128 272-268 310l-3 16c192 14 290 164 255 373C1198-150 979 0 699 0H504l41-246h148c132 0 230-76 250-191 20-119-59-199-210-199H616l39-236h78c109 0 193-89 210-192 19-111-46-193-176-193-128 0-228 79-249 203L342 0H42" id="u"/><path d="M490 22C212 20 43-104 37-315l281-29c11 104 65 146 186 146 109 0 214-47 222-128 5-51-29-84-119-104l-186-40c-195-42-289-149-277-303 14-232 242-359 510-359 274 2 415 119 430 308l-267 27c-11-76-56-120-162-120-98 0-203 45-211 128-6 50 24 83 118 104l194 40c196 41 291 138 279 289-15 238-265 378-545 378" id="v"/><g id="c"><use transform="matrix(0.010850694444444444,0,0,0.010850694444444444,0,0)" xlink:href="#s"/><use transform="matrix(0.010850694444444444,0,0,0.010850694444444444,16.590711805555554,0)" xlink:href="#t"/><use transform="matrix(0.010850694444444444,0,0,0.010850694444444444,30.436197916666664,0)" xlink:href="#u"/><use transform="matrix(0.010850694444444444,0,0,0.010850694444444444,45.041232638888886,0)" xlink:href="#k"/><use transform="matrix(0.010850694444444444,0,0,0.010850694444444444,58.14887152777778,0)" xlink:href="#l"/><use transform="matrix(0.010850694444444444,0,0,0.010850694444444444,71.98350694444444,0)" xlink:href="#v"/><use transform="matrix(0.010850694444444444,0,0,0.010850694444444444,84.41840277777777,0)" xlink:href="#m"/><use transform="matrix(0.010850694444444444,0,0,0.010850694444444444,92.36111111111111,0)" xlink:href="#k"/><use transform="matrix(0.010850694444444444,0,0,0.010850694444444444,105.46875,0)" xlink:href="#p"/><use transform="matrix(0.010850694444444444,0,0,0.010850694444444444,111.49088541666666,0)" xlink:href="#p"/><use transform="matrix(0.010850694444444444,0,0,0.010850694444444444,117.51302083333334,0)" xlink:href="#k"/></g><path d="M458 0L52-1490h194c108 439 233 855 324 1313 92-459 221-873 331-1313h216c110 438 234 854 330 1307 92-455 216-869 323-1307h196L1558 0h-221l-256-944c-26-95-50-200-73-331-22 122-44 223-73 331L680 0H458" id="w"/><path d="M628 24c-324 0-524-230-524-574 0-343 198-582 503-582 237 0 487 146 487 559v75H286c9 234 145 362 343 362 132 0 231-58 273-172l174 48C1024-91 857 24 628 24zM287-650h624c-17-190-120-322-304-322-192 0-309 151-320 322" id="x"/><path d="M677 24c-213 0-288-135-325-197h-20V0H158v-1490h180v551h14c37-59 106-193 324-193 279 0 474 222 474 576 0 356-194 580-473 580zm-27-161c209 0 317-186 317-421 0-232-105-413-317-413-206 0-314 166-314 413 0 249 111 421 314 421" id="y"/><path d="M538 24C308 24 148-78 108-271l171-41c32 123 123 178 257 178 156 0 256-77 256-169 0-77-54-128-164-154l-186-44c-203-48-300-148-300-305 0-192 176-326 414-326 230 0 351 112 402 269l-163 42c-31-80-94-158-238-158-133 0-233 69-233 162 0 83 57 129 188 160l169 40c203 48 298 149 298 302 0 196-179 339-441 339" id="z"/><path d="M158 0v-1118h174v172h12c41-113 157-188 290-188 26 0 70 2 91 3v181c-11-2-60-10-108-10-161 0-279 109-279 260V0H158" id="A"/><path d="M481 0L54-1118h197c107 314 236 620 325 951 87-331 217-637 324-951h197L670 0H481" id="B"/><g id="d"><use transform="matrix(0.010850694444444444,0,0,0.010850694444444444,0,0)" xlink:href="#w"/><use transform="matrix(0.010850694444444444,0,0,0.010850694444444444,20.768229166666668,0)" xlink:href="#x"/><use transform="matrix(0.010850694444444444,0,0,0.010850694444444444,33.723958333333336,0)" xlink:href="#y"/><use transform="matrix(0.010850694444444444,0,0,0.010850694444444444,47.33072916666667,0)" xlink:href="#z"/><use transform="matrix(0.010850694444444444,0,0,0.010850694444444444,59.06032986111112,0)" xlink:href="#x"/><use transform="matrix(0.010850694444444444,0,0,0.010850694444444444,72.01605902777779,0)" xlink:href="#A"/><use transform="matrix(0.010850694444444444,0,0,0.010850694444444444,80.72916666666669,0)" xlink:href="#B"/><use transform="matrix(0.010850694444444444,0,0,0.010850694444444444,92.78428819444449,0)" xlink:href="#x"/><use transform="matrix(0.010850694444444444,0,0,0.010850694444444444,105.74001736111114,0)" xlink:href="#A"/></g><path d="M645 0H180v-1490h484c435 0 692 280 692 742 0 466-257 748-711 748zM370-168h263c363 0 539-218 539-580 0-358-176-574-521-574H370v1154" id="C"/><path d="M471 26C259 26 90-98 90-318c0-256 228-303 435-329 202-27 287-16 287-108 0-139-79-219-234-219-161 0-248 86-283 164l-173-57c86-203 278-265 451-265 150 0 419 46 419 395V0H815v-152h-12C765-73 660 26 471 26zm31-159c199 0 310-134 310-271v-155c-30 35-226 55-295 64-131 17-246 59-246 186 0 116 97 176 231 176" id="D"/><path d="M598-1118v154H368v674c0 100 37 144 132 144 23 0 62-6 92-12L629-6c-37 13-88 20-134 20-193 0-307-107-307-290v-688H20v-154h168v-266h180v266h230" id="E"/><path d="M338-670V0H158v-1118h173l1 207c72-158 192-221 342-221 226 0 378 139 378 422V0H872v-695c0-172-96-275-252-275-161 0-282 109-282 300" id="F"/><path d="M158 0v-1490h180v865h22l478-493h223L593-638 1096 0H865L456-523 338-412V0H158" id="G"/><g id="e"><use transform="matrix(0.010850694444444444,0,0,0.010850694444444444,0,0)" xlink:href="#C"/><use transform="matrix(0.010850694444444444,0,0,0.010850694444444444,16.03732638888889,0)" xlink:href="#D"/><use transform="matrix(0.010850694444444444,0,0,0.010850694444444444,28.515625,0)" xlink:href="#E"/><use transform="matrix(0.010850694444444444,0,0,0.010850694444444444,35.568576388888886,0)" xlink:href="#x"/><use transform="matrix(0.010850694444444444,0,0,0.010850694444444444,48.52430555555556,0)" xlink:href="#F"/><use transform="matrix(0.010850694444444444,0,0,0.010850694444444444,61.65364583333333,0)" xlink:href="#y"/><use transform="matrix(0.010850694444444444,0,0,0.010850694444444444,75.47743055555554,0)" xlink:href="#D"/><use transform="matrix(0.010850694444444444,0,0,0.010850694444444444,87.95572916666666,0)" xlink:href="#F"/><use transform="matrix(0.010850694444444444,0,0,0.010850694444444444,101.08506944444441,0)" xlink:href="#G"/><use transform="matrix(0.010850694444444444,0,0,0.010850694444444444,113.28124999999997,0)" xlink:href="#z"/><use transform="matrix(0.010850694444444444,0,0,0.010850694444444444,125.01085069444441,0)" xlink:href="#x"/><use transform="matrix(0.010850694444444444,0,0,0.010850694444444444,137.9665798611111,0)" xlink:href="#A"/><use transform="matrix(0.010850694444444444,0,0,0.010850694444444444,146.67968749999997,0)" xlink:href="#B"/><use transform="matrix(0.010850694444444444,0,0,0.010850694444444444,158.73480902777774,0)" xlink:href="#x"/><use transform="matrix(0.010850694444444444,0,0,0.010850694444444444,171.6905381944444,0)" xlink:href="#A"/></g><path d="M42 0l247-1490h305L494-888h649l100-602h306L1302 0H996l106-635H452L347 0H42" id="H"/><path d="M188-1237l42-253h1217l-42 253H950L745 0H439l205-1237H188" id="I"/><path d="M42 0l247-1490h581c338 0 498 208 449 502-48 295-279 501-622 501H428L347 0H42zm427-733h220c188 0 291-107 316-254 24-150-46-251-234-251H552" id="J"/><path d="M605 22C247 22 24-145 68-462h297c-14 151 94 226 259 226 162 0 283-76 302-190 17-102-68-149-225-189l-158-41c-235-59-372-183-336-404 43-269 290-450 614-450 328 0 536 182 498 445h-294c8-119-76-188-229-188-156 0-256 72-273 172-30 154 195 185 336 221 239 61 415 185 374 436-45 271-266 446-628 446" id="K"/><g id="f"><use transform="matrix(0.010850694444444444,0,0,0.010850694444444444,0,0)" xlink:href="#H"/><use transform="matrix(0.010850694444444444,0,0,0.010850694444444444,16.6015625,0)" xlink:href="#I"/><use transform="matrix(0.010850694444444444,0,0,0.010850694444444444,31.4453125,0)" xlink:href="#I"/><use transform="matrix(0.010850694444444444,0,0,0.010850694444444444,46.2890625,0)" xlink:href="#J"/><use transform="matrix(0.010850694444444444,0,0,0.010850694444444444,60.68793402777778,0)" xlink:href="#K"/></g><path d="M177-607c55-330 228-732 419-974h279c-197 312-342 675-392 973-43 262-19 511 84 887H288C164-4 128-310 177-607" id="L"/><path d="M42 0l247-1490h305L389-253h642L990 0H42" id="M"/><path d="M934-1560L160 224h-260l774-1784h260" id="N"/><path d="M-73 288C132-57 252-316 298-599c53-316 21-679-63-973h287c103 233 136 630 78 974-51 310-183 616-386 886H-73" id="O"/><g id="g"><use transform="matrix(0.010850694444444444,0,0,0.010850694444444444,0,0)" xlink:href="#L"/><use transform="matrix(0.010850694444444444,0,0,0.010850694444444444,8.37673611111111,0)" xlink:href="#K"/><use transform="matrix(0.010850694444444444,0,0,0.010850694444444444,22.916666666666664,0)" xlink:href="#K"/><use transform="matrix(0.010850694444444444,0,0,0.010850694444444444,37.45659722222222,0)" xlink:href="#M"/><use transform="matrix(0.010850694444444444,0,0,0.010850694444444444,50.021701388888886,0)" xlink:href="#N"/><use transform="matrix(0.010850694444444444,0,0,0.010850694444444444,58.64800347222221,0)" xlink:href="#I"/><use transform="matrix(0.010850694444444444,0,0,0.010850694444444444,73.49175347222221,0)" xlink:href="#M"/><use transform="matrix(0.010850694444444444,0,0,0.010850694444444444,86.05685763888889,0)" xlink:href="#K"/><use transform="matrix(0.010850694444444444,0,0,0.010850694444444444,100.59678819444444,0)" xlink:href="#O"/></g><path d="M180 0v-1490h510c348 0 508 209 508 474 0 266-160 477-507 477H370V0H180zm190-706h312c236 0 327-133 327-310 0-176-91-307-329-307H370v617" id="P"/><path d="M678-1118v154H420V0H240v-964H20v-154h220v-149c0-194 155-293 318-293 85 0 141 18 168 30l-50 154c-19-6-47-17-97-17-111 0-159 58-159 166v109h258" id="Q"/><path d="M158 0v-1118h180V0H158zm91-1301c-68 0-125-53-125-119s57-119 125-119c69 0 126 53 126 119s-57 119-126 119" id="R"/><path d="M338-1490V0H158v-1490h180" id="S"/><g id="h"><use transform="matrix(0.010850694444444444,0,0,0.010850694444444444,0,0)" xlink:href="#P"/><use transform="matrix(0.010850694444444444,0,0,0.010850694444444444,14.192708333333332,0)" xlink:href="#D"/><use transform="matrix(0.010850694444444444,0,0,0.010850694444444444,26.671006944444443,0)" xlink:href="#G"/><use transform="matrix(0.010850694444444444,0,0,0.010850694444444444,38.36805555555556,0)" xlink:href="#x"/><use transform="matrix(0.010850694444444444,0,0,0.010850694444444444,51.32378472222222,0)" xlink:href="#E"/><use transform="matrix(0.010850694444444444,0,0,0.010850694444444444,58.05121527777778,0)" xlink:href="#Q"/><use transform="matrix(0.010850694444444444,0,0,0.010850694444444444,66.27604166666667,0)" xlink:href="#R"/><use transform="matrix(0.010850694444444444,0,0,0.010850694444444444,71.65798611111111,0)" xlink:href="#S"/><use transform="matrix(0.010850694444444444,0,0,0.010850694444444444,77.36545138888889,0)" xlink:href="#E"/><use transform="matrix(0.010850694444444444,0,0,0.010850694444444444,84.41840277777777,0)" xlink:href="#x"/><use transform="matrix(0.010850694444444444,0,0,0.010850694444444444,97.37413194444444,0)" xlink:href="#A"/></g><path d="M613 24c-304 0-509-231-509-576 0-350 205-580 509-580 305 0 511 230 511 580 0 345-206 576-511 576zm0-161c226 0 329-195 329-415 0-222-103-419-329-419-223 0-326 196-326 419 0 220 103 415 326 415" id="T"/><path d="M65 0l393-574-370-544h210c88 136 192 297 267 435 67-142 176-302 264-435h206L661-564 1053 0H844c-94-144-206-310-287-458C484-308 366-142 273 0H65" id="U"/><path d="M140 405l46-156c120 36 205 19 263-150l32-93L54-1118h197c107 313 237 620 324 950 87-331 219-637 326-950h196L606 167c-68 178-176 259-334 259-64 0-113-12-132-21" id="V"/><g id="i"><use transform="matrix(0.010850694444444444,0,0,0.010850694444444444,0,0)" xlink:href="#P"/><use transform="matrix(0.010850694444444444,0,0,0.010850694444444444,14.192708333333332,0)" xlink:href="#A"/><use transform="matrix(0.010850694444444444,0,0,0.010850694444444444,22.189670138888886,0)" xlink:href="#T"/><use transform="matrix(0.010850694444444444,0,0,0.010850694444444444,35.01519097222222,0)" xlink:href="#U"/><use transform="matrix(0.010850694444444444,0,0,0.010850694444444444,47.14626736111111,0)" xlink:href="#V"/></g></defs></g></svg>